<svg xmlns="http://www.w3.org/2000/svg" xmlns:xlink="http://www.w3.org/1999/xlink" width="200" zoomAndPan="magnify" viewBox="0 0 150 74.999997" height="100" preserveAspectRatio="xMidYMid meet" version="1.0"><defs><g/><clipPath id="1ccba67edf"><path d="M 7.5 13 L 48 13 L 48 58.523438 L 7.5 58.523438 Z M 7.5 13 " clip-rule="nonzero"/></clipPath><clipPath id="3de13cb765"><path d="M 43.507812 26.746094 L 45.300781 26.746094 L 45.300781 28.585938 L 43.507812 28.585938 Z M 43.507812 26.746094 " clip-rule="nonzero"/></clipPath><clipPath id="3c0701789f"><path d="M 44.40625 26.746094 C 43.910156 26.746094 43.507812 27.15625 43.507812 27.664062 C 43.507812 28.171875 43.910156 28.582031 44.40625 28.582031 C 44.898438 28.582031 45.300781 28.171875 45.300781 27.664062 C 45.300781 27.15625 44.898438 26.746094 44.40625 26.746094 Z M 44.40625 26.746094 " clip-rule="nonzero"/></clipPath><clipPath id="73b815fae6"><path d="M 39.230469 22.867188 L 42.164062 22.867188 L 42.164062 25.800781 L 39.230469 25.800781 Z M 39.230469 22.867188 " clip-rule="nonzero"/></clipPath><clipPath id="69847dad48"><path d="M 40.699219 22.867188 C 39.886719 22.867188 39.230469 23.523438 39.230469 24.335938 C 39.230469 25.144531 39.886719 25.800781 40.699219 25.800781 C 41.507812 25.800781 42.164062 25.144531 42.164062 24.335938 C 42.164062 23.523438 41.507812 22.867188 40.699219 22.867188 Z M 40.699219 22.867188 " clip-rule="nonzero"/></clipPath><clipPath id="5b803d8dec"><path d="M 34 34.035156 L 40 34.035156 L 40 41 L 34 41 Z M 34 34.035156 " clip-rule="nonzero"/></clipPath><clipPath id="00041e07d9"><path d="M 29 35 L 43.480469 35 L 43.480469 52 L 29 52 Z M 29 35 " clip-rule="nonzero"/></clipPath><clipPath id="27e9f6f0a9"><path d="M 17 34.035156 L 24 34.035156 L 24 41 L 17 41 Z M 17 34.035156 " clip-rule="nonzero"/></clipPath><clipPath id="583b68d430"><path d="M 14.230469 35 L 29 35 L 29 52 L 14.230469 52 Z M 14.230469 35 " clip-rule="nonzero"/></clipPath><clipPath id="5acd33f351"><path d="M 25.445312 31 L 33.695312 31 L 33.695312 43 L 25.445312 43 Z M 25.445312 31 " clip-rule="nonzero"/></clipPath><clipPath id="173bf2d51e"><path d="M 30.109375 36.394531 C 30.121094 36.386719 30.128906 36.375 30.136719 36.363281 C 30.132812 36.371094 30.128906 36.378906 30.109375 36.394531 C 30.09375 36.410156 30.074219 36.425781 30.046875 36.449219 C 30.054688 36.441406 30.070312 36.429688 30.085938 36.417969 C 30.09375 36.410156 30.101562 36.40625 30.109375 36.394531 Z M 29.21875 37.996094 C 29.214844 38.003906 29.214844 38.011719 29.214844 38.011719 C 29.214844 38.003906 29.214844 38 29.21875 37.996094 Z M 28.21875 34.367188 C 28.21875 34.394531 28.21875 34.410156 28.21875 34.417969 C 28.21875 34.386719 28.222656 34.363281 28.21875 34.367188 Z M 29.394531 39.144531 C 29.398438 39.144531 29.398438 39.140625 29.398438 39.140625 C 29.394531 39.144531 29.390625 39.152344 29.386719 39.15625 C 29.390625 39.152344 29.394531 39.148438 29.394531 39.144531 Z M 29.40625 39.128906 C 29.402344 39.132812 29.402344 39.136719 29.398438 39.136719 C 29.402344 39.136719 29.402344 39.132812 29.40625 39.128906 Z M 29.398438 39.140625 C 29.398438 39.140625 29.398438 39.140625 29.398438 39.136719 C 29.398438 39.140625 29.398438 39.140625 29.398438 39.140625 Z M 28.558594 41.417969 C 28.558594 41.441406 28.554688 41.464844 28.558594 41.488281 C 28.558594 41.464844 28.558594 41.441406 28.558594 41.417969 Z M 29.386719 39.15625 C 29.382812 39.15625 29.382812 39.160156 29.382812 39.160156 C 29.382812 39.160156 29.382812 39.15625 29.386719 39.15625 Z M 28.558594 41.488281 C 28.558594 41.488281 28.558594 41.492188 28.558594 41.492188 C 28.558594 41.492188 28.558594 41.488281 28.558594 41.488281 Z M 29.40625 39.125 C 29.40625 39.128906 29.40625 39.128906 29.40625 39.128906 C 29.40625 39.128906 29.40625 39.128906 29.40625 39.125 Z M 29.332031 39.207031 C 29.320312 39.214844 29.3125 39.226562 29.300781 39.238281 C 29.3125 39.226562 29.320312 39.214844 29.328125 39.207031 C 29.339844 39.199219 29.351562 39.1875 29.363281 39.179688 C 29.367188 39.171875 29.375 39.167969 29.382812 39.160156 C 29.375 39.167969 29.371094 39.171875 29.363281 39.175781 C 29.351562 39.1875 29.339844 39.195312 29.332031 39.207031 Z M 29.097656 39.460938 C 29.089844 39.46875 29.085938 39.476562 29.078125 39.484375 C 29.085938 39.476562 29.09375 39.46875 29.097656 39.460938 Z M 29.40625 39.125 C 29.410156 39.125 29.410156 39.121094 29.410156 39.117188 C 29.410156 39.121094 29.410156 39.125 29.40625 39.125 Z M 29.644531 39.0625 C 29.644531 39.0625 29.644531 39.0625 29.644531 39.058594 C 29.644531 39.0625 29.644531 39.0625 29.640625 39.0625 C 29.640625 39.0625 29.640625 39.0625 29.644531 39.0625 Z M 29.636719 39.0625 C 29.640625 39.0625 29.640625 39.0625 29.640625 39.0625 C 29.640625 39.0625 29.636719 39.0625 29.632812 39.0625 C 29.636719 39.0625 29.636719 39.0625 29.636719 39.0625 Z M 29.617188 39.0625 C 29.621094 39.0625 29.628906 39.0625 29.632812 39.0625 C 29.628906 39.0625 29.621094 39.0625 29.617188 39.0625 Z M 28.804688 39.761719 Z M 33.820312 36.886719 C 33.816406 36.894531 33.8125 36.902344 33.8125 36.90625 C 33.8125 36.902344 33.816406 36.894531 33.820312 36.886719 Z M 29.609375 39.0625 C 29.613281 39.0625 29.613281 39.0625 29.617188 39.0625 C 29.613281 39.0625 29.613281 39.0625 29.609375 39.0625 Z M 29.410156 39.117188 Z M 29.609375 39.0625 C 29.605469 39.0625 29.601562 39.0625 29.597656 39.0625 C 29.601562 39.0625 29.605469 39.0625 29.609375 39.0625 Z M 26.898438 38.464844 C 26.90625 38.46875 26.914062 38.476562 26.917969 38.480469 C 26.914062 38.472656 26.90625 38.46875 26.898438 38.464844 Z M 30.828125 34.925781 C 30.828125 34.9375 30.824219 34.945312 30.824219 34.953125 C 30.824219 34.945312 30.828125 34.933594 30.828125 34.925781 Z M 28.808594 39.761719 Z M 30.527344 37.441406 C 30.53125 37.4375 30.53125 37.433594 30.535156 37.433594 C 30.535156 37.433594 30.53125 37.4375 30.527344 37.441406 Z M 28.734375 36.484375 C 28.730469 36.480469 28.730469 36.476562 28.726562 36.476562 C 28.726562 36.476562 28.730469 36.480469 28.730469 36.480469 C 28.734375 36.484375 28.742188 36.492188 28.746094 36.496094 C 28.75 36.5 28.753906 36.503906 28.757812 36.503906 C 28.75 36.5 28.738281 36.492188 28.734375 36.484375 Z M 33.96875 36.558594 C 33.96875 36.5625 33.964844 36.566406 33.964844 36.566406 C 33.960938 36.578125 33.960938 36.585938 33.953125 36.59375 C 33.941406 36.625 33.921875 36.660156 33.90625 36.695312 C 33.878906 36.765625 33.847656 36.835938 33.820312 36.886719 C 33.84375 36.84375 33.875 36.769531 33.871094 36.773438 C 33.855469 36.8125 33.839844 36.847656 33.820312 36.882812 C 33.820312 36.886719 33.816406 36.886719 33.816406 36.890625 C 33.816406 36.890625 33.816406 36.894531 33.816406 36.894531 C 33.8125 36.902344 33.808594 36.90625 33.804688 36.914062 C 33.800781 36.917969 33.796875 36.925781 33.796875 36.929688 C 33.777344 36.960938 33.753906 36.996094 33.734375 37.027344 C 33.75 37.003906 33.742188 37.019531 33.714844 37.0625 C 33.6875 37.113281 33.648438 37.195312 33.605469 37.265625 C 33.597656 37.273438 33.617188 37.234375 33.632812 37.207031 C 33.628906 37.214844 33.625 37.222656 33.617188 37.230469 C 33.582031 37.289062 33.558594 37.351562 33.523438 37.40625 C 33.484375 37.460938 33.441406 37.515625 33.402344 37.574219 C 33.363281 37.628906 33.324219 37.683594 33.28125 37.742188 C 33.277344 37.746094 33.273438 37.753906 33.265625 37.761719 C 33.246094 37.789062 33.210938 37.835938 33.175781 37.878906 C 33.136719 37.933594 33.09375 37.980469 33.070312 38.007812 C 33.050781 38.035156 33.046875 38.039062 33.089844 37.996094 C 33.132812 37.945312 33.160156 37.914062 33.175781 37.894531 C 33.191406 37.871094 33.195312 37.863281 33.203125 37.855469 C 33.210938 37.839844 33.21875 37.835938 33.277344 37.757812 C 33.238281 37.8125 33.195312 37.863281 33.160156 37.917969 C 33.167969 37.90625 33.175781 37.898438 33.179688 37.890625 C 33.167969 37.90625 33.152344 37.925781 33.136719 37.945312 C 33.15625 37.921875 33.183594 37.886719 33.222656 37.84375 C 33.242188 37.820312 33.261719 37.796875 33.28125 37.769531 C 33.300781 37.742188 33.324219 37.710938 33.34375 37.679688 C 33.328125 37.703125 33.308594 37.734375 33.28125 37.773438 C 33.253906 37.808594 33.21875 37.847656 33.1875 37.886719 C 33.15625 37.925781 33.121094 37.96875 33.089844 38.003906 C 33.054688 38.039062 33.027344 38.074219 33.003906 38.101562 C 32.996094 38.109375 32.972656 38.140625 32.9375 38.179688 C 32.902344 38.21875 32.851562 38.261719 32.8125 38.300781 C 32.785156 38.328125 32.757812 38.355469 32.730469 38.382812 L 32.640625 38.457031 C 32.585938 38.507812 32.519531 38.550781 32.457031 38.589844 C 32.445312 38.589844 32.566406 38.523438 32.632812 38.464844 C 32.65625 38.4375 32.636719 38.457031 32.585938 38.496094 C 32.558594 38.515625 32.519531 38.539062 32.476562 38.566406 C 32.433594 38.589844 32.386719 38.621094 32.335938 38.65625 C 32.378906 38.628906 32.332031 38.664062 32.28125 38.695312 C 32.257812 38.710938 32.230469 38.722656 32.21875 38.730469 C 32.207031 38.734375 32.207031 38.734375 32.234375 38.722656 C 32.148438 38.765625 32.074219 38.792969 31.992188 38.8125 C 31.949219 38.824219 31.902344 38.832031 31.855469 38.839844 C 31.804688 38.851562 31.75 38.863281 31.6875 38.878906 C 31.777344 38.859375 31.746094 38.867188 31.699219 38.878906 C 31.65625 38.890625 31.597656 38.902344 31.628906 38.898438 C 31.574219 38.90625 31.507812 38.917969 31.449219 38.929688 C 31.386719 38.9375 31.339844 38.953125 31.320312 38.960938 C 31.277344 38.96875 31.261719 38.972656 31.300781 38.957031 C 31.238281 38.972656 31.203125 38.980469 31.183594 38.984375 C 31.164062 38.988281 31.160156 38.992188 31.152344 38.992188 C 31.140625 38.996094 31.125 39.003906 30.976562 39.007812 C 31.023438 39.007812 31.070312 39.007812 31.113281 39.003906 C 31.070312 39.007812 31.035156 39.011719 31 39.011719 C 30.96875 39.015625 30.933594 39.015625 30.902344 39.011719 C 30.867188 39.011719 30.828125 39.007812 30.78125 39.007812 C 30.734375 39.007812 30.675781 39.011719 30.601562 39.011719 C 30.601562 39.015625 30.617188 39.015625 30.621094 39.015625 C 30.625 39.015625 30.625 39.015625 30.617188 39.015625 C 30.609375 39.015625 30.59375 39.015625 30.566406 39.019531 C 30.570312 39.019531 30.574219 39.019531 30.578125 39.019531 C 30.578125 39.019531 30.578125 39.019531 30.578125 39.015625 C 30.582031 39.015625 30.574219 39.015625 30.566406 39.015625 C 30.5625 39.015625 30.554688 39.019531 30.539062 39.027344 C 30.527344 39.03125 30.507812 39.039062 30.480469 39.042969 C 30.457031 39.042969 30.433594 39.039062 30.410156 39.035156 C 30.382812 39.03125 30.359375 39.027344 30.332031 39.023438 C 30.320312 39.023438 30.308594 39.023438 30.296875 39.023438 C 30.28125 39.027344 30.265625 39.027344 30.253906 39.03125 C 30.222656 39.03125 30.195312 39.03125 30.167969 39.03125 C 30.109375 39.03125 30.054688 39.027344 30.007812 39.035156 C 29.960938 39.046875 29.910156 39.042969 29.863281 39.039062 C 29.820312 39.035156 29.773438 39.027344 29.734375 39.03125 C 29.71875 39.03125 29.699219 39.039062 29.675781 39.050781 C 29.667969 39.054688 29.65625 39.058594 29.644531 39.058594 C 29.660156 39.054688 29.675781 39.050781 29.6875 39.042969 C 29.703125 39.039062 29.714844 39.035156 29.726562 39.03125 C 29.734375 39.027344 29.75 39.03125 29.761719 39.03125 C 29.789062 39.03125 29.8125 39.03125 29.828125 39.035156 C 29.835938 39.035156 29.84375 39.035156 29.847656 39.035156 C 29.851562 39.035156 29.855469 39.035156 29.855469 39.035156 C 29.816406 39.03125 29.777344 39.027344 29.738281 39.027344 C 29.722656 39.027344 29.707031 39.035156 29.691406 39.042969 C 29.671875 39.050781 29.652344 39.058594 29.625 39.0625 C 29.605469 39.0625 29.582031 39.058594 29.566406 39.058594 C 29.546875 39.058594 29.527344 39.058594 29.511719 39.0625 C 29.492188 39.066406 29.476562 39.074219 29.457031 39.082031 C 29.441406 39.089844 29.421875 39.101562 29.414062 39.105469 C 29.414062 39.105469 29.414062 39.113281 29.410156 39.117188 C 29.414062 39.109375 29.414062 39.109375 29.414062 39.105469 C 29.417969 39.101562 29.421875 39.101562 29.425781 39.097656 C 29.429688 39.09375 29.433594 39.09375 29.4375 39.089844 C 29.4375 39.089844 29.429688 39.09375 29.425781 39.097656 C 29.421875 39.097656 29.417969 39.101562 29.414062 39.105469 C 29.410156 39.105469 29.410156 39.109375 29.410156 39.113281 C 29.410156 39.113281 29.40625 39.121094 29.40625 39.125 C 29.398438 39.136719 29.390625 39.144531 29.382812 39.15625 C 29.367188 39.171875 29.347656 39.183594 29.335938 39.199219 C 29.320312 39.210938 29.308594 39.230469 29.296875 39.246094 C 29.292969 39.25 29.289062 39.253906 29.285156 39.253906 C 29.28125 39.257812 29.28125 39.261719 29.277344 39.261719 C 29.273438 39.269531 29.269531 39.273438 29.265625 39.277344 C 29.269531 39.269531 29.277344 39.261719 29.28125 39.253906 C 29.289062 39.246094 29.300781 39.238281 29.308594 39.226562 C 29.316406 39.214844 29.324219 39.207031 29.332031 39.199219 C 29.339844 39.191406 29.351562 39.179688 29.359375 39.175781 C 29.378906 39.160156 29.390625 39.144531 29.394531 39.140625 C 29.394531 39.136719 29.390625 39.144531 29.367188 39.164062 C 29.347656 39.179688 29.328125 39.195312 29.3125 39.214844 C 29.304688 39.226562 29.296875 39.238281 29.285156 39.25 C 29.273438 39.257812 29.265625 39.269531 29.253906 39.28125 C 29.238281 39.304688 29.21875 39.332031 29.195312 39.355469 C 29.171875 39.382812 29.148438 39.40625 29.125 39.429688 C 29.101562 39.453125 29.078125 39.476562 29.054688 39.503906 C 29.03125 39.527344 29.003906 39.550781 28.980469 39.574219 C 28.933594 39.617188 28.898438 39.667969 28.863281 39.710938 C 28.90625 39.648438 28.878906 39.679688 28.925781 39.621094 C 28.910156 39.636719 28.890625 39.660156 28.871094 39.6875 C 28.859375 39.699219 28.847656 39.714844 28.835938 39.726562 C 28.832031 39.734375 28.824219 39.742188 28.820312 39.75 L 28.808594 39.757812 L 28.808594 39.761719 L 28.8125 39.761719 L 28.808594 39.761719 C 28.8125 39.761719 28.816406 39.765625 28.816406 39.765625 L 28.832031 39.75 L 28.851562 39.726562 C 28.867188 39.707031 28.882812 39.691406 28.894531 39.675781 C 28.921875 39.640625 28.949219 39.609375 28.976562 39.585938 C 29.003906 39.558594 29.03125 39.535156 29.050781 39.515625 C 29.0625 39.503906 29.070312 39.492188 29.078125 39.484375 C 29.070312 39.496094 29.0625 39.503906 29.050781 39.515625 C 29.03125 39.535156 29.007812 39.554688 28.988281 39.574219 C 28.945312 39.613281 28.910156 39.660156 28.882812 39.691406 C 28.816406 39.773438 28.875 39.703125 28.925781 39.644531 C 28.953125 39.613281 28.980469 39.589844 28.988281 39.582031 C 28.996094 39.574219 28.980469 39.585938 28.9375 39.636719 C 28.914062 39.664062 28.894531 39.6875 28.875 39.710938 C 28.863281 39.722656 28.855469 39.738281 28.84375 39.746094 L 28.828125 39.765625 L 28.824219 39.769531 C 28.824219 39.8125 28.824219 39.855469 28.824219 39.898438 C 28.824219 39.917969 28.824219 39.941406 28.824219 39.960938 C 28.824219 39.984375 28.824219 40.007812 28.820312 40.03125 C 28.816406 40.074219 28.808594 40.121094 28.808594 40.167969 C 28.808594 40.21875 28.8125 40.269531 28.8125 40.328125 C 28.8125 40.292969 28.808594 40.332031 28.804688 40.40625 C 28.808594 40.457031 28.816406 40.519531 28.8125 40.59375 C 28.808594 40.632812 28.808594 40.671875 28.804688 40.710938 C 28.804688 40.753906 28.804688 40.796875 28.800781 40.839844 C 28.800781 40.882812 28.800781 40.925781 28.800781 40.96875 C 28.804688 41.011719 28.8125 41.054688 28.816406 41.101562 C 28.832031 41.191406 28.808594 41.277344 28.8125 41.351562 C 28.808594 41.304688 28.816406 41.265625 28.816406 41.238281 C 28.816406 41.207031 28.816406 41.183594 28.816406 41.164062 C 28.8125 41.128906 28.808594 41.101562 28.800781 41.058594 C 28.804688 41.082031 28.808594 41.105469 28.808594 41.128906 C 28.808594 41.132812 28.808594 41.136719 28.808594 41.136719 C 28.8125 41.140625 28.8125 41.144531 28.8125 41.148438 C 28.8125 41.148438 28.8125 41.152344 28.8125 41.152344 C 28.8125 41.15625 28.8125 41.15625 28.8125 41.160156 C 28.8125 41.164062 28.8125 41.171875 28.8125 41.175781 C 28.8125 41.179688 28.8125 41.179688 28.8125 41.179688 C 28.8125 41.203125 28.808594 41.226562 28.808594 41.25 C 28.808594 41.242188 28.808594 41.234375 28.808594 41.226562 C 28.804688 41.269531 28.800781 41.3125 28.804688 41.355469 C 28.820312 41.417969 28.859375 41.476562 28.867188 41.542969 C 28.878906 41.609375 28.855469 41.675781 28.863281 41.742188 C 28.867188 41.808594 28.875 41.871094 28.878906 41.9375 C 28.882812 42.003906 28.890625 42.070312 28.894531 42.132812 C 28.902344 42.199219 28.917969 42.265625 28.929688 42.328125 C 28.941406 42.394531 28.945312 42.460938 28.964844 42.523438 C 28.980469 42.570312 29.015625 42.652344 29.039062 42.722656 C 29.0625 42.800781 29.078125 42.863281 28.988281 42.882812 C 28.949219 42.890625 28.824219 42.933594 28.792969 42.917969 C 28.785156 42.894531 28.78125 42.875 28.78125 42.851562 C 28.777344 42.835938 28.773438 42.824219 28.773438 42.8125 C 28.777344 42.839844 28.777344 42.863281 28.78125 42.878906 C 28.785156 42.898438 28.789062 42.910156 28.789062 42.917969 C 28.789062 42.921875 28.792969 42.921875 28.792969 42.921875 C 28.792969 42.921875 28.789062 42.921875 28.789062 42.917969 C 28.789062 42.917969 28.785156 42.914062 28.785156 42.910156 C 28.785156 42.910156 28.785156 42.914062 28.785156 42.917969 C 28.789062 42.921875 28.792969 42.921875 28.796875 42.921875 C 28.796875 42.925781 28.800781 42.925781 28.804688 42.925781 C 28.816406 42.925781 28.824219 42.925781 28.832031 42.925781 C 28.847656 42.925781 28.863281 42.921875 28.882812 42.917969 C 28.914062 42.910156 28.953125 42.898438 28.988281 42.886719 C 29.003906 42.882812 29.023438 42.878906 29.039062 42.867188 C 29.054688 42.855469 29.0625 42.835938 29.0625 42.820312 C 29.0625 42.785156 29.054688 42.753906 29.046875 42.726562 C 29.027344 42.671875 29.011719 42.628906 29.007812 42.613281 C 29.03125 42.679688 29.046875 42.726562 29.058594 42.761719 C 29.066406 42.796875 29.066406 42.828125 29.058594 42.847656 C 29.046875 42.867188 29.035156 42.875 29.023438 42.882812 C 29.015625 42.886719 29.003906 42.890625 28.988281 42.894531 C 28.976562 42.898438 28.960938 42.90625 28.933594 42.914062 C 28.921875 42.917969 28.90625 42.921875 28.886719 42.925781 C 28.875 42.929688 28.867188 42.929688 28.855469 42.933594 C 28.847656 42.933594 28.84375 42.933594 28.835938 42.9375 C 28.828125 42.9375 28.816406 42.9375 28.808594 42.9375 C 28.8125 42.9375 28.824219 42.9375 28.835938 42.9375 C 28.847656 42.9375 28.859375 42.933594 28.875 42.929688 C 28.90625 42.925781 28.949219 42.914062 28.992188 42.902344 L 28.988281 42.902344 C 29.007812 42.898438 29.027344 42.890625 29.046875 42.878906 C 29.066406 42.863281 29.074219 42.835938 29.074219 42.816406 C 29.074219 42.773438 29.066406 42.773438 29.0625 42.757812 C 29.058594 42.742188 29.050781 42.71875 29.023438 42.644531 C 29 42.578125 28.972656 42.515625 28.960938 42.445312 C 28.957031 42.410156 28.953125 42.375 28.945312 42.335938 C 28.941406 42.300781 28.929688 42.261719 28.921875 42.226562 C 28.90625 42.152344 28.902344 42.074219 28.894531 41.992188 C 28.890625 41.914062 28.882812 41.828125 28.875 41.742188 C 28.875 41.726562 28.878906 41.777344 28.886719 41.832031 C 28.890625 41.859375 28.890625 41.890625 28.894531 41.910156 C 28.894531 41.933594 28.898438 41.949219 28.898438 41.949219 C 28.902344 41.992188 28.90625 42.039062 28.910156 42.078125 C 28.914062 42.121094 28.914062 42.164062 28.925781 42.199219 C 28.933594 42.238281 28.941406 42.277344 28.949219 42.316406 C 28.953125 42.355469 28.960938 42.390625 28.964844 42.425781 C 28.96875 42.460938 28.976562 42.492188 28.988281 42.523438 C 28.996094 42.554688 29.011719 42.585938 29.023438 42.613281 C 29.035156 42.644531 29.046875 42.671875 29.054688 42.703125 C 29.066406 42.730469 29.074219 42.761719 29.078125 42.792969 C 29.082031 42.804688 29.082031 42.816406 29.078125 42.828125 C 29.074219 42.84375 29.070312 42.855469 29.0625 42.867188 C 29.042969 42.890625 29.015625 42.898438 28.992188 42.902344 C 28.960938 42.910156 28.929688 42.917969 28.898438 42.925781 C 28.878906 42.929688 28.863281 42.933594 28.84375 42.9375 C 28.835938 42.9375 28.820312 42.941406 28.808594 42.9375 C 28.804688 42.9375 28.796875 42.9375 28.792969 42.9375 C 28.785156 42.933594 28.777344 42.933594 28.777344 42.929688 C 28.765625 42.878906 28.761719 42.855469 28.757812 42.820312 C 28.75 42.789062 28.746094 42.753906 28.738281 42.722656 C 28.726562 42.652344 28.714844 42.582031 28.699219 42.507812 C 28.683594 42.4375 28.652344 42.363281 28.648438 42.277344 C 28.648438 42.238281 28.648438 42.195312 28.644531 42.15625 C 28.644531 42.117188 28.636719 42.078125 28.628906 42.035156 C 28.621094 41.988281 28.617188 41.957031 28.613281 41.933594 C 28.613281 41.914062 28.609375 41.90625 28.609375 41.902344 C 28.609375 41.898438 28.613281 41.925781 28.613281 41.953125 C 28.617188 41.984375 28.621094 42.011719 28.621094 42.015625 C 28.621094 42.019531 28.617188 41.996094 28.605469 41.917969 C 28.609375 41.921875 28.605469 41.878906 28.589844 41.792969 C 28.589844 41.769531 28.585938 41.746094 28.582031 41.71875 C 28.582031 41.695312 28.574219 41.664062 28.570312 41.632812 C 28.566406 41.605469 28.558594 41.570312 28.558594 41.535156 C 28.558594 41.519531 28.558594 41.507812 28.558594 41.492188 C 28.558594 41.515625 28.558594 41.535156 28.558594 41.558594 C 28.566406 41.605469 28.574219 41.648438 28.582031 41.695312 C 28.585938 41.710938 28.582031 41.703125 28.585938 41.71875 C 28.589844 41.800781 28.609375 41.867188 28.613281 41.910156 C 28.617188 41.929688 28.621094 41.945312 28.621094 41.957031 C 28.625 41.96875 28.625 41.976562 28.625 41.972656 C 28.621094 41.945312 28.617188 41.914062 28.609375 41.878906 C 28.605469 41.839844 28.597656 41.800781 28.589844 41.757812 C 28.585938 41.675781 28.5625 41.59375 28.5625 41.523438 C 28.5625 41.519531 28.5625 41.539062 28.566406 41.5625 C 28.566406 41.574219 28.570312 41.585938 28.570312 41.59375 C 28.570312 41.601562 28.574219 41.609375 28.574219 41.609375 C 28.558594 41.53125 28.566406 41.4375 28.566406 41.363281 C 28.566406 41.359375 28.566406 41.351562 28.5625 41.347656 C 28.5625 41.34375 28.5625 41.339844 28.5625 41.335938 C 28.5625 41.328125 28.558594 41.316406 28.558594 41.308594 C 28.554688 41.292969 28.550781 41.277344 28.550781 41.261719 C 28.546875 41.234375 28.539062 41.210938 28.539062 41.199219 L 28.542969 41.234375 L 28.523438 41.117188 C 28.519531 41.078125 28.519531 41.039062 28.523438 41 C 28.519531 41.027344 28.515625 41.0625 28.515625 41.0625 C 28.515625 41.0625 28.515625 41.054688 28.515625 41.03125 C 28.515625 41.011719 28.519531 40.976562 28.519531 40.925781 C 28.515625 40.832031 28.488281 40.746094 28.488281 40.660156 C 28.484375 40.582031 28.46875 40.507812 28.46875 40.433594 L 28.472656 40.445312 L 28.472656 40.433594 L 28.480469 40.433594 C 28.480469 40.433594 28.484375 40.433594 28.484375 40.429688 C 28.484375 40.429688 28.484375 40.429688 28.480469 40.429688 L 28.480469 40.425781 C 28.480469 40.425781 28.472656 40.414062 28.46875 40.410156 C 28.464844 40.402344 28.460938 40.394531 28.457031 40.386719 C 28.449219 40.371094 28.441406 40.355469 28.433594 40.339844 C 28.421875 40.3125 28.40625 40.28125 28.390625 40.25 C 28.375 40.21875 28.355469 40.1875 28.339844 40.152344 C 28.324219 40.121094 28.3125 40.082031 28.296875 40.042969 C 28.308594 40.066406 28.3125 40.085938 28.324219 40.109375 C 28.332031 40.128906 28.339844 40.152344 28.351562 40.171875 C 28.335938 40.136719 28.320312 40.105469 28.308594 40.066406 C 28.296875 40.027344 28.28125 39.988281 28.257812 39.929688 C 28.261719 39.953125 28.269531 39.96875 28.257812 39.945312 C 28.25 39.9375 28.242188 39.914062 28.226562 39.878906 C 28.210938 39.84375 28.199219 39.789062 28.179688 39.71875 C 28.175781 39.691406 28.167969 39.664062 28.15625 39.632812 C 28.144531 39.605469 28.128906 39.566406 28.117188 39.53125 C 28.101562 39.492188 28.089844 39.453125 28.074219 39.410156 C 28.058594 39.371094 28.039062 39.332031 28.015625 39.292969 C 27.992188 39.253906 27.96875 39.207031 27.949219 39.167969 C 27.9375 39.148438 27.925781 39.128906 27.914062 39.101562 L 27.898438 39.070312 L 27.894531 39.054688 C 27.890625 39.050781 27.886719 39.039062 27.886719 39.042969 C 27.890625 39.039062 27.886719 39.039062 27.886719 39.039062 L 27.875 39.03125 C 27.867188 39.027344 27.855469 39.019531 27.847656 39.015625 C 27.828125 39.003906 27.804688 38.992188 27.785156 38.980469 C 27.746094 38.953125 27.714844 38.917969 27.6875 38.894531 C 27.675781 38.886719 27.691406 38.894531 27.714844 38.914062 C 27.738281 38.933594 27.773438 38.96875 27.820312 38.992188 C 27.84375 39.003906 27.863281 39.015625 27.882812 39.027344 C 27.886719 39.027344 27.890625 39.03125 27.894531 39.03125 C 27.898438 39.03125 27.898438 39.035156 27.898438 39.039062 C 27.902344 39.046875 27.90625 39.054688 27.910156 39.0625 C 27.921875 39.097656 27.9375 39.121094 27.9375 39.117188 C 27.921875 39.089844 27.914062 39.066406 27.90625 39.042969 L 27.902344 39.035156 C 27.902344 39.035156 27.902344 39.035156 27.902344 39.03125 C 27.902344 39.03125 27.902344 39.027344 27.902344 39.027344 L 27.894531 39.023438 C 27.886719 39.019531 27.882812 39.015625 27.875 39.011719 C 27.859375 39.003906 27.847656 38.996094 27.835938 38.988281 C 27.824219 38.984375 27.8125 38.976562 27.800781 38.96875 C 27.777344 38.949219 27.753906 38.929688 27.71875 38.898438 C 27.703125 38.882812 27.683594 38.867188 27.660156 38.851562 C 27.632812 38.835938 27.601562 38.816406 27.566406 38.796875 C 27.546875 38.785156 27.515625 38.769531 27.484375 38.75 C 27.453125 38.730469 27.414062 38.71875 27.382812 38.703125 C 27.316406 38.675781 27.269531 38.652344 27.296875 38.667969 C 27.371094 38.707031 27.429688 38.722656 27.484375 38.75 C 27.535156 38.78125 27.589844 38.8125 27.65625 38.847656 C 27.652344 38.847656 27.582031 38.808594 27.511719 38.769531 C 27.476562 38.746094 27.441406 38.730469 27.410156 38.71875 C 27.378906 38.707031 27.359375 38.699219 27.351562 38.695312 C 27.402344 38.71875 27.453125 38.738281 27.496094 38.765625 C 27.445312 38.734375 27.410156 38.726562 27.390625 38.71875 C 27.371094 38.710938 27.363281 38.707031 27.355469 38.707031 C 27.347656 38.703125 27.335938 38.699219 27.308594 38.6875 C 27.28125 38.675781 27.242188 38.652344 27.179688 38.609375 C 27.164062 38.59375 27.144531 38.582031 27.128906 38.570312 C 27.109375 38.558594 27.09375 38.550781 27.074219 38.542969 C 27.039062 38.527344 26.996094 38.515625 26.953125 38.492188 C 26.90625 38.46875 26.882812 38.445312 26.871094 38.433594 C 26.859375 38.425781 26.855469 38.421875 26.859375 38.425781 C 26.863281 38.429688 26.882812 38.449219 26.898438 38.464844 C 26.863281 38.433594 26.835938 38.40625 26.804688 38.382812 C 26.769531 38.359375 26.722656 38.339844 26.6875 38.320312 C 26.652344 38.304688 26.617188 38.28125 26.59375 38.269531 C 26.613281 38.277344 26.628906 38.289062 26.640625 38.292969 C 26.660156 38.304688 26.667969 38.308594 26.667969 38.308594 C 26.652344 38.296875 26.632812 38.289062 26.621094 38.277344 C 26.605469 38.269531 26.59375 38.261719 26.578125 38.253906 C 26.550781 38.238281 26.523438 38.222656 26.496094 38.207031 C 26.445312 38.171875 26.402344 38.132812 26.359375 38.09375 C 26.320312 38.054688 26.277344 38.011719 26.238281 37.960938 C 26.21875 37.9375 26.195312 37.914062 26.167969 37.890625 C 26.140625 37.863281 26.113281 37.835938 26.085938 37.800781 C 26.113281 37.835938 26.148438 37.867188 26.179688 37.898438 C 26.210938 37.929688 26.238281 37.960938 26.265625 37.992188 C 26.320312 38.058594 26.375 38.109375 26.410156 38.140625 C 26.441406 38.164062 26.378906 38.109375 26.347656 38.074219 C 26.328125 38.054688 26.320312 38.042969 26.328125 38.050781 C 26.332031 38.058594 26.359375 38.085938 26.421875 38.140625 C 26.382812 38.105469 26.34375 38.066406 26.308594 38.027344 C 26.277344 37.988281 26.246094 37.949219 26.210938 37.910156 C 26.164062 37.875 26.035156 37.742188 26.183594 37.890625 C 26.148438 37.859375 26.109375 37.824219 26.078125 37.777344 C 26.046875 37.734375 26.023438 37.6875 26 37.648438 C 25.953125 37.566406 25.914062 37.503906 25.90625 37.496094 C 25.914062 37.503906 25.890625 37.464844 25.847656 37.398438 C 25.828125 37.363281 25.808594 37.320312 25.785156 37.277344 C 25.761719 37.234375 25.738281 37.183594 25.710938 37.136719 C 25.6875 37.097656 25.664062 37.050781 25.65625 37.039062 C 25.648438 37.03125 25.65625 37.046875 25.691406 37.113281 C 25.671875 37.078125 25.652344 37.046875 25.640625 37.007812 C 25.621094 36.957031 25.605469 36.90625 25.59375 36.859375 L 25.605469 36.917969 C 25.601562 36.894531 25.59375 36.871094 25.589844 36.847656 C 25.585938 36.824219 25.578125 36.800781 25.574219 36.773438 C 25.566406 36.722656 25.570312 36.675781 25.566406 36.628906 C 25.566406 36.644531 25.570312 36.671875 25.570312 36.710938 C 25.570312 36.730469 25.570312 36.75 25.574219 36.769531 C 25.574219 36.78125 25.578125 36.792969 25.582031 36.804688 C 25.582031 36.8125 25.585938 36.824219 25.585938 36.832031 C 25.605469 36.910156 25.625 36.972656 25.617188 36.941406 C 25.609375 36.914062 25.601562 36.886719 25.597656 36.859375 C 25.589844 36.832031 25.582031 36.804688 25.578125 36.777344 C 25.570312 36.726562 25.570312 36.695312 25.574219 36.707031 C 25.570312 36.671875 25.570312 36.632812 25.566406 36.59375 C 25.5625 36.558594 25.550781 36.527344 25.539062 36.5 C 25.519531 36.441406 25.511719 36.40625 25.515625 36.4375 C 25.527344 36.476562 25.539062 36.511719 25.546875 36.539062 C 25.558594 36.566406 25.5625 36.585938 25.5625 36.597656 C 25.554688 36.5625 25.546875 36.535156 25.535156 36.507812 C 25.527344 36.480469 25.519531 36.457031 25.515625 36.4375 C 25.503906 36.394531 25.5 36.363281 25.5 36.332031 C 25.496094 36.304688 25.492188 36.269531 25.492188 36.222656 C 25.488281 36.210938 25.488281 36.199219 25.488281 36.183594 C 25.488281 36.167969 25.488281 36.152344 25.488281 36.132812 C 25.492188 36.097656 25.503906 36.058594 25.507812 36.019531 C 25.507812 36.027344 25.507812 36.035156 25.503906 36.042969 C 25.503906 36.054688 25.511719 36.03125 25.511719 35.996094 C 25.511719 35.964844 25.5 35.917969 25.492188 35.890625 C 25.472656 35.816406 25.480469 35.835938 25.484375 35.867188 C 25.492188 35.898438 25.503906 35.941406 25.492188 35.90625 C 25.488281 35.878906 25.480469 35.851562 25.472656 35.824219 C 25.46875 35.796875 25.460938 35.769531 25.460938 35.734375 C 25.460938 35.699219 25.472656 35.667969 25.480469 35.644531 C 25.480469 35.632812 25.484375 35.621094 25.484375 35.609375 C 25.484375 35.597656 25.484375 35.582031 25.484375 35.570312 C 25.484375 35.601562 25.484375 35.621094 25.480469 35.636719 C 25.476562 35.648438 25.472656 35.660156 25.46875 35.671875 C 25.464844 35.691406 25.460938 35.703125 25.457031 35.730469 C 25.457031 35.703125 25.464844 35.675781 25.46875 35.65625 C 25.476562 35.636719 25.480469 35.621094 25.480469 35.605469 C 25.484375 35.566406 25.480469 35.535156 25.480469 35.503906 C 25.480469 35.488281 25.480469 35.472656 25.476562 35.457031 C 25.476562 35.445312 25.476562 35.433594 25.472656 35.421875 C 25.46875 35.398438 25.464844 35.375 25.457031 35.351562 C 25.453125 35.324219 25.449219 35.296875 25.449219 35.269531 C 25.449219 35.242188 25.453125 35.21875 25.460938 35.191406 C 25.464844 35.164062 25.46875 35.136719 25.472656 35.105469 C 25.476562 35.089844 25.476562 35.074219 25.476562 35.054688 C 25.476562 35.035156 25.480469 35.015625 25.484375 34.996094 C 25.492188 34.957031 25.507812 34.917969 25.515625 34.875 C 25.523438 34.851562 25.523438 34.832031 25.523438 34.804688 C 25.523438 34.78125 25.519531 34.757812 25.515625 34.726562 C 25.511719 34.699219 25.507812 34.667969 25.511719 34.636719 C 25.511719 34.605469 25.515625 34.578125 25.519531 34.546875 C 25.523438 34.53125 25.523438 34.515625 25.527344 34.5 L 25.53125 34.476562 C 25.53125 34.46875 25.535156 34.457031 25.542969 34.449219 C 25.550781 34.429688 25.5625 34.417969 25.574219 34.40625 C 25.582031 34.394531 25.589844 34.386719 25.589844 34.382812 C 25.59375 34.375 25.589844 34.375 25.582031 34.359375 C 25.578125 34.351562 25.574219 34.34375 25.570312 34.332031 C 25.5625 34.320312 25.5625 34.304688 25.566406 34.292969 C 25.574219 34.273438 25.578125 34.261719 25.585938 34.246094 C 25.59375 34.230469 25.597656 34.21875 25.605469 34.203125 C 25.632812 34.160156 25.621094 34.105469 25.640625 34.046875 C 25.625 34.089844 25.628906 34.125 25.621094 34.152344 C 25.621094 34.167969 25.617188 34.179688 25.613281 34.191406 C 25.609375 34.203125 25.601562 34.214844 25.59375 34.226562 C 25.589844 34.242188 25.582031 34.253906 25.578125 34.265625 C 25.574219 34.273438 25.570312 34.28125 25.570312 34.289062 C 25.566406 34.296875 25.5625 34.308594 25.566406 34.320312 C 25.566406 34.328125 25.574219 34.339844 25.578125 34.347656 L 25.589844 34.371094 C 25.589844 34.371094 25.589844 34.375 25.589844 34.375 C 25.59375 34.378906 25.59375 34.378906 25.589844 34.382812 C 25.589844 34.382812 25.589844 34.386719 25.589844 34.386719 C 25.585938 34.390625 25.585938 34.394531 25.582031 34.398438 C 25.578125 34.402344 25.570312 34.410156 25.5625 34.417969 C 25.554688 34.429688 25.546875 34.4375 25.539062 34.453125 C 25.535156 34.460938 25.535156 34.46875 25.53125 34.476562 C 25.53125 34.484375 25.53125 34.488281 25.527344 34.496094 C 25.519531 34.542969 25.511719 34.601562 25.511719 34.671875 C 25.511719 34.652344 25.511719 34.660156 25.511719 34.679688 C 25.511719 34.699219 25.515625 34.722656 25.519531 34.738281 C 25.523438 34.757812 25.523438 34.765625 25.523438 34.746094 C 25.523438 34.738281 25.519531 34.722656 25.515625 34.699219 C 25.515625 34.6875 25.515625 34.675781 25.515625 34.65625 C 25.515625 34.640625 25.519531 34.621094 25.519531 34.601562 C 25.523438 34.5625 25.53125 34.523438 25.535156 34.488281 C 25.539062 34.480469 25.539062 34.460938 25.546875 34.453125 C 25.554688 34.441406 25.558594 34.429688 25.566406 34.421875 C 25.574219 34.414062 25.582031 34.40625 25.585938 34.402344 C 25.589844 34.398438 25.589844 34.394531 25.59375 34.390625 C 25.59375 34.386719 25.597656 34.386719 25.597656 34.382812 C 25.597656 34.378906 25.597656 34.375 25.59375 34.371094 C 25.59375 34.367188 25.589844 34.359375 25.582031 34.351562 C 25.582031 34.34375 25.578125 34.339844 25.578125 34.335938 C 25.574219 34.328125 25.570312 34.324219 25.570312 34.316406 C 25.570312 34.300781 25.574219 34.289062 25.578125 34.277344 C 25.589844 34.242188 25.613281 34.210938 25.621094 34.179688 C 25.628906 34.148438 25.628906 34.113281 25.636719 34.074219 C 25.640625 34.0625 25.644531 34.054688 25.648438 34.042969 C 25.652344 34.03125 25.65625 34.023438 25.664062 34.015625 C 25.679688 33.992188 25.710938 33.984375 25.734375 33.976562 C 25.746094 33.988281 25.757812 34.003906 25.769531 34.011719 C 25.777344 34.019531 25.78125 34.027344 25.789062 34.035156 C 25.796875 34.042969 25.804688 34.050781 25.8125 34.058594 L 25.84375 34.089844 C 25.84375 34.09375 25.84375 34.09375 25.84375 34.09375 C 25.84375 34.097656 25.847656 34.097656 25.851562 34.101562 C 25.855469 34.105469 25.859375 34.113281 25.863281 34.121094 C 25.867188 34.121094 25.867188 34.121094 25.867188 34.125 C 25.867188 34.125 25.871094 34.125 25.871094 34.125 C 25.882812 34.132812 25.890625 34.140625 25.894531 34.144531 L 25.90625 34.152344 C 25.90625 34.152344 25.914062 34.160156 25.914062 34.164062 C 25.925781 34.175781 25.9375 34.1875 25.945312 34.199219 C 25.96875 34.222656 25.988281 34.246094 26.003906 34.269531 C 26.039062 34.320312 26.058594 34.363281 26.078125 34.394531 C 26.074219 34.382812 26.0625 34.367188 26.054688 34.347656 C 26.042969 34.324219 26.027344 34.296875 26.007812 34.269531 C 25.984375 34.242188 25.964844 34.214844 25.941406 34.191406 C 25.929688 34.179688 25.917969 34.164062 25.910156 34.152344 C 25.90625 34.148438 25.902344 34.148438 25.902344 34.148438 L 25.894531 34.140625 C 25.886719 34.132812 25.882812 34.128906 25.871094 34.125 C 25.871094 34.121094 25.871094 34.121094 25.867188 34.121094 C 25.867188 34.121094 25.867188 34.121094 25.867188 34.117188 C 25.859375 34.109375 25.851562 34.097656 25.847656 34.09375 C 25.847656 34.09375 25.847656 34.089844 25.847656 34.089844 C 25.847656 34.089844 25.84375 34.085938 25.84375 34.085938 C 25.84375 34.085938 25.84375 34.082031 25.84375 34.082031 C 25.847656 34.089844 25.847656 34.089844 25.847656 34.089844 C 25.851562 34.09375 25.851562 34.09375 25.851562 34.097656 L 25.859375 34.105469 L 25.863281 34.113281 C 25.867188 34.113281 25.871094 34.117188 25.867188 34.117188 C 25.871094 34.117188 25.871094 34.117188 25.871094 34.121094 C 25.871094 34.121094 25.871094 34.121094 25.875 34.121094 C 25.890625 34.128906 25.898438 34.140625 25.90625 34.148438 C 25.90625 34.148438 25.914062 34.152344 25.917969 34.15625 L 25.921875 34.164062 L 25.933594 34.179688 C 25.953125 34.199219 25.96875 34.21875 25.988281 34.242188 C 26.003906 34.261719 26.019531 34.285156 26.035156 34.308594 C 26.046875 34.332031 26.058594 34.355469 26.070312 34.375 C 26.082031 34.394531 26.09375 34.410156 26.105469 34.421875 C 26.117188 34.433594 26.132812 34.441406 26.144531 34.453125 C 26.171875 34.46875 26.191406 34.484375 26.195312 34.488281 C 26.191406 34.484375 26.195312 34.488281 26.203125 34.496094 C 26.210938 34.503906 26.222656 34.515625 26.234375 34.53125 C 26.253906 34.5625 26.265625 34.609375 26.292969 34.636719 C 26.320312 34.667969 26.363281 34.699219 26.390625 34.734375 C 26.414062 34.765625 26.433594 34.789062 26.441406 34.796875 C 26.414062 34.761719 26.398438 34.742188 26.390625 34.730469 C 26.378906 34.71875 26.375 34.714844 26.375 34.714844 C 26.375 34.714844 26.390625 34.726562 26.375 34.710938 C 26.394531 34.726562 26.425781 34.773438 26.457031 34.816406 C 26.488281 34.859375 26.519531 34.902344 26.523438 34.910156 C 26.53125 34.921875 26.515625 34.902344 26.5 34.886719 C 26.542969 34.945312 26.570312 34.980469 26.601562 35.023438 C 26.617188 35.042969 26.632812 35.0625 26.652344 35.089844 C 26.671875 35.117188 26.695312 35.148438 26.726562 35.1875 C 26.679688 35.132812 26.722656 35.183594 26.769531 35.253906 C 26.792969 35.289062 26.816406 35.328125 26.832031 35.355469 C 26.84375 35.371094 26.851562 35.382812 26.855469 35.394531 C 26.859375 35.402344 26.863281 35.40625 26.863281 35.40625 C 26.878906 35.429688 26.886719 35.4375 26.886719 35.441406 C 26.890625 35.445312 26.890625 35.441406 26.894531 35.445312 C 26.894531 35.445312 26.902344 35.453125 26.910156 35.472656 C 26.921875 35.492188 26.9375 35.523438 26.957031 35.578125 C 26.945312 35.546875 26.925781 35.507812 26.925781 35.503906 C 26.921875 35.5 26.925781 35.507812 26.933594 35.527344 C 26.941406 35.546875 26.953125 35.578125 26.972656 35.625 C 26.972656 35.625 26.957031 35.597656 26.9375 35.554688 C 26.929688 35.53125 26.917969 35.503906 26.90625 35.476562 C 26.898438 35.460938 26.890625 35.445312 26.878906 35.433594 C 26.871094 35.421875 26.863281 35.40625 26.855469 35.394531 C 26.820312 35.339844 26.789062 35.285156 26.761719 35.25 C 26.738281 35.210938 26.71875 35.191406 26.726562 35.199219 C 26.742188 35.21875 26.761719 35.25 26.785156 35.289062 C 26.808594 35.324219 26.832031 35.359375 26.851562 35.394531 C 26.859375 35.410156 26.871094 35.421875 26.878906 35.433594 C 26.886719 35.449219 26.894531 35.460938 26.898438 35.46875 C 26.90625 35.484375 26.90625 35.484375 26.894531 35.464844 C 26.917969 35.507812 26.933594 35.554688 26.953125 35.597656 C 26.972656 35.648438 27.003906 35.695312 27.039062 35.738281 C 27.054688 35.761719 27.074219 35.785156 27.09375 35.808594 C 27.109375 35.828125 27.132812 35.855469 27.148438 35.878906 C 27.1875 35.933594 27.214844 35.992188 27.253906 36.050781 C 27.289062 36.113281 27.324219 36.175781 27.367188 36.246094 C 27.488281 36.445312 27.488281 36.433594 27.371094 36.242188 C 27.4375 36.351562 27.453125 36.375 27.46875 36.398438 C 27.476562 36.410156 27.484375 36.421875 27.5 36.445312 C 27.515625 36.46875 27.539062 36.503906 27.578125 36.5625 C 27.566406 36.546875 27.574219 36.554688 27.582031 36.574219 C 27.59375 36.589844 27.605469 36.617188 27.613281 36.632812 C 27.714844 36.839844 27.636719 36.675781 27.703125 36.808594 C 27.722656 36.847656 27.703125 36.808594 27.75 36.902344 C 27.769531 36.9375 27.789062 36.96875 27.808594 37.007812 C 27.839844 37.085938 27.832031 37.074219 27.816406 37.03125 C 27.808594 37.019531 27.804688 37.007812 27.796875 36.992188 C 27.789062 36.980469 27.78125 36.964844 27.773438 36.949219 C 27.757812 36.917969 27.738281 36.886719 27.722656 36.855469 C 27.75 36.90625 27.773438 36.953125 27.796875 36.992188 C 27.816406 37.039062 27.832031 37.078125 27.847656 37.117188 C 27.851562 37.136719 27.859375 37.15625 27.867188 37.171875 C 27.871094 37.179688 27.875 37.1875 27.878906 37.199219 C 27.882812 37.207031 27.886719 37.214844 27.890625 37.222656 C 27.902344 37.257812 27.914062 37.292969 27.925781 37.324219 C 27.917969 37.304688 27.90625 37.273438 27.898438 37.246094 C 27.886719 37.222656 27.878906 37.203125 27.882812 37.210938 C 27.902344 37.261719 27.914062 37.300781 27.925781 37.335938 C 27.9375 37.371094 27.949219 37.398438 27.960938 37.425781 C 27.980469 37.472656 28 37.507812 28.015625 37.539062 C 28.050781 37.605469 28.078125 37.671875 28.101562 37.839844 C 28.09375 37.773438 28.082031 37.703125 28.058594 37.632812 C 28.035156 37.558594 27.992188 37.488281 27.957031 37.402344 C 27.949219 37.378906 27.941406 37.351562 27.933594 37.320312 C 27.941406 37.351562 27.957031 37.390625 27.972656 37.429688 C 27.988281 37.464844 28.003906 37.496094 28.011719 37.507812 C 27.992188 37.46875 27.972656 37.429688 27.960938 37.390625 C 27.980469 37.445312 28.019531 37.511719 28.050781 37.59375 C 28.082031 37.675781 28.097656 37.773438 28.109375 37.855469 L 28.121094 37.957031 C 28.125 37.992188 28.128906 38.027344 28.132812 38.058594 C 28.132812 38.050781 28.128906 38.03125 28.121094 38.003906 C 28.117188 37.976562 28.113281 37.941406 28.109375 37.90625 C 28.105469 37.867188 28.097656 37.828125 28.09375 37.789062 C 28.085938 37.746094 28.078125 37.707031 28.070312 37.675781 C 28.082031 37.726562 28.078125 37.730469 28.074219 37.707031 C 28.070312 37.6875 28.058594 37.644531 28.042969 37.609375 C 28.03125 37.570312 28.015625 37.542969 28.011719 37.539062 C 28.007812 37.535156 28.023438 37.554688 28.050781 37.636719 C 28.078125 37.726562 28.089844 37.8125 28.097656 37.890625 C 28.105469 37.929688 28.109375 37.964844 28.113281 38 C 28.117188 38.035156 28.125 38.066406 28.132812 38.09375 C 28.125 38.054688 28.117188 38.019531 28.113281 37.976562 C 28.125 38.070312 28.152344 38.152344 28.164062 38.234375 C 28.175781 38.316406 28.179688 38.390625 28.1875 38.460938 C 28.199219 38.535156 28.207031 38.605469 28.214844 38.679688 C 28.21875 38.71875 28.226562 38.757812 28.226562 38.796875 C 28.230469 38.835938 28.230469 38.875 28.230469 38.917969 C 28.230469 38.980469 28.230469 38.949219 28.234375 38.894531 C 28.234375 38.84375 28.230469 38.769531 28.230469 38.753906 C 28.222656 38.6875 28.210938 38.589844 28.199219 38.507812 C 28.199219 38.484375 28.195312 38.464844 28.191406 38.449219 C 28.191406 38.433594 28.191406 38.417969 28.1875 38.402344 C 28.1875 38.390625 28.1875 38.378906 28.1875 38.371094 C 28.1875 38.363281 28.1875 38.359375 28.1875 38.359375 C 28.191406 38.425781 28.203125 38.496094 28.210938 38.570312 C 28.21875 38.644531 28.226562 38.714844 28.234375 38.789062 C 28.238281 38.863281 28.234375 38.929688 28.234375 38.988281 C 28.234375 39.035156 28.253906 39.082031 28.261719 39.117188 C 28.261719 39.117188 28.261719 39.121094 28.265625 39.144531 C 28.265625 39.15625 28.265625 39.171875 28.265625 39.183594 C 28.265625 39.1875 28.261719 39.199219 28.261719 39.199219 C 28.261719 39.203125 28.261719 39.203125 28.261719 39.203125 L 28.261719 39.207031 L 28.265625 39.210938 L 28.273438 39.226562 L 28.285156 39.257812 L 28.269531 39.226562 C 28.296875 39.285156 28.320312 39.367188 28.355469 39.4375 C 28.394531 39.507812 28.4375 39.578125 28.457031 39.632812 C 28.441406 39.589844 28.421875 39.550781 28.402344 39.511719 C 28.417969 39.542969 28.4375 39.578125 28.453125 39.617188 C 28.453125 39.625 28.457031 39.632812 28.460938 39.644531 L 28.464844 39.65625 L 28.46875 39.675781 C 28.472656 39.6875 28.476562 39.699219 28.480469 39.710938 L 28.484375 39.722656 L 28.484375 39.726562 C 28.484375 39.730469 28.484375 39.726562 28.484375 39.722656 C 28.488281 39.710938 28.488281 39.703125 28.488281 39.691406 L 28.488281 39.6875 C 28.488281 39.679688 28.488281 39.671875 28.488281 39.667969 C 28.488281 39.652344 28.488281 39.640625 28.488281 39.628906 C 28.488281 39.601562 28.488281 39.582031 28.488281 39.5625 C 28.488281 39.519531 28.488281 39.484375 28.492188 39.453125 C 28.496094 39.425781 28.503906 39.402344 28.507812 39.378906 C 28.511719 39.355469 28.515625 39.328125 28.519531 39.300781 C 28.523438 39.292969 28.523438 39.285156 28.523438 39.277344 L 28.523438 39.269531 C 28.523438 39.265625 28.523438 39.261719 28.523438 39.257812 C 28.527344 39.253906 28.527344 39.25 28.527344 39.242188 C 28.53125 39.222656 28.535156 39.199219 28.542969 39.171875 C 28.554688 39.136719 28.550781 39.152344 28.542969 39.199219 C 28.539062 39.21875 28.53125 39.25 28.527344 39.285156 C 28.523438 39.316406 28.515625 39.351562 28.507812 39.394531 C 28.5 39.429688 28.492188 39.476562 28.492188 39.519531 C 28.492188 39.5625 28.496094 39.601562 28.496094 39.636719 C 28.496094 39.652344 28.496094 39.667969 28.496094 39.683594 C 28.496094 39.691406 28.496094 39.695312 28.496094 39.703125 C 28.496094 39.710938 28.496094 39.71875 28.496094 39.726562 C 28.5 39.714844 28.5 39.703125 28.5 39.691406 C 28.5 39.667969 28.5 39.640625 28.5 39.613281 C 28.5 39.558594 28.496094 39.503906 28.503906 39.449219 C 28.511719 39.390625 28.527344 39.339844 28.53125 39.292969 C 28.535156 39.238281 28.550781 39.1875 28.5625 39.136719 C 28.566406 39.109375 28.574219 39.085938 28.578125 39.0625 C 28.582031 39.039062 28.582031 39.015625 28.585938 38.992188 C 28.589844 38.964844 28.589844 38.941406 28.59375 38.914062 C 28.59375 38.890625 28.601562 38.863281 28.605469 38.839844 C 28.617188 38.792969 28.628906 38.746094 28.636719 38.699219 C 28.644531 38.675781 28.648438 38.652344 28.652344 38.632812 C 28.65625 38.609375 28.660156 38.589844 28.664062 38.566406 C 28.652344 38.625 28.660156 38.59375 28.664062 38.566406 C 28.667969 38.535156 28.671875 38.511719 28.65625 38.582031 C 28.660156 38.558594 28.667969 38.523438 28.675781 38.484375 C 28.6875 38.445312 28.695312 38.410156 28.707031 38.375 C 28.726562 38.304688 28.742188 38.246094 28.75 38.238281 C 28.730469 38.296875 28.714844 38.355469 28.699219 38.414062 C 28.695312 38.429688 28.691406 38.441406 28.6875 38.457031 C 28.683594 38.472656 28.679688 38.484375 28.675781 38.5 C 28.671875 38.527344 28.667969 38.554688 28.664062 38.582031 C 28.65625 38.632812 28.644531 38.671875 28.636719 38.714844 C 28.628906 38.753906 28.621094 38.785156 28.617188 38.808594 C 28.644531 38.699219 28.65625 38.648438 28.660156 38.621094 C 28.667969 38.597656 28.667969 38.601562 28.667969 38.601562 C 28.664062 38.605469 28.664062 38.609375 28.671875 38.582031 C 28.671875 38.570312 28.679688 38.546875 28.683594 38.515625 C 28.6875 38.5 28.691406 38.484375 28.699219 38.460938 C 28.703125 38.441406 28.710938 38.417969 28.71875 38.390625 C 28.738281 38.324219 28.730469 38.339844 28.726562 38.347656 C 28.726562 38.347656 28.726562 38.347656 28.730469 38.332031 C 28.734375 38.324219 28.734375 38.3125 28.742188 38.292969 C 28.746094 38.277344 28.75 38.253906 28.761719 38.222656 C 28.761719 38.230469 28.75 38.25 28.742188 38.28125 C 28.734375 38.3125 28.71875 38.355469 28.703125 38.414062 C 28.683594 38.476562 28.710938 38.382812 28.738281 38.289062 C 28.742188 38.265625 28.75 38.238281 28.757812 38.214844 C 28.765625 38.195312 28.773438 38.175781 28.777344 38.160156 C 28.789062 38.128906 28.792969 38.117188 28.785156 38.136719 C 28.796875 38.105469 28.804688 38.082031 28.8125 38.050781 C 28.824219 38.019531 28.832031 37.992188 28.84375 37.96875 C 28.863281 37.914062 28.878906 37.867188 28.886719 37.824219 C 28.898438 37.78125 28.90625 37.742188 28.914062 37.707031 C 28.921875 37.675781 28.933594 37.648438 28.941406 37.628906 C 28.996094 37.460938 28.929688 37.636719 28.921875 37.667969 C 28.9375 37.613281 28.957031 37.558594 28.972656 37.511719 C 28.980469 37.484375 28.984375 37.460938 28.988281 37.433594 C 28.992188 37.410156 28.996094 37.382812 28.996094 37.351562 C 29 37.324219 29.003906 37.292969 29.011719 37.265625 C 29.019531 37.234375 29.03125 37.207031 29.039062 37.179688 C 29.050781 37.15625 29.058594 37.128906 29.066406 37.105469 C 29.070312 37.082031 29.074219 37.054688 29.078125 37.027344 C 29.085938 37 29.089844 36.957031 29.101562 36.902344 C 29.097656 36.898438 29.089844 36.894531 29.085938 36.886719 C 29.074219 36.878906 29.0625 36.867188 29.054688 36.855469 C 29.035156 36.835938 29.007812 36.8125 28.984375 36.789062 C 28.957031 36.769531 28.929688 36.742188 28.902344 36.71875 C 28.890625 36.703125 28.875 36.691406 28.863281 36.675781 C 28.855469 36.667969 28.847656 36.660156 28.84375 36.652344 C 28.835938 36.644531 28.828125 36.632812 28.820312 36.621094 C 28.8125 36.601562 28.804688 36.582031 28.800781 36.566406 C 28.792969 36.550781 28.789062 36.539062 28.78125 36.535156 C 28.777344 36.53125 28.773438 36.527344 28.765625 36.523438 C 28.757812 36.515625 28.746094 36.511719 28.734375 36.5 C 28.730469 36.496094 28.726562 36.488281 28.722656 36.484375 C 28.71875 36.480469 28.714844 36.476562 28.710938 36.472656 C 28.707031 36.464844 28.699219 36.457031 28.695312 36.445312 C 28.652344 36.375 28.636719 36.304688 28.609375 36.253906 C 28.632812 36.289062 28.644531 36.332031 28.667969 36.378906 C 28.675781 36.402344 28.6875 36.425781 28.703125 36.453125 C 28.710938 36.464844 28.71875 36.476562 28.726562 36.488281 C 28.738281 36.5 28.757812 36.511719 28.765625 36.519531 C 28.777344 36.527344 28.785156 36.53125 28.789062 36.535156 C 28.792969 36.542969 28.796875 36.550781 28.800781 36.5625 C 28.8125 36.582031 28.816406 36.613281 28.839844 36.644531 C 28.878906 36.695312 28.925781 36.734375 28.972656 36.777344 C 28.933594 36.742188 28.863281 36.675781 28.917969 36.730469 C 28.957031 36.765625 28.992188 36.796875 29.027344 36.824219 C 29.035156 36.832031 29.042969 36.839844 29.046875 36.847656 L 29.070312 36.867188 C 29.078125 36.878906 29.085938 36.886719 29.09375 36.894531 L 29.101562 36.902344 L 29.105469 36.902344 C 29.101562 36.925781 29.097656 36.949219 29.09375 36.976562 L 29.089844 37.003906 C 29.085938 37.039062 29.082031 37.0625 29.078125 37.078125 C 29.074219 37.09375 29.074219 37.101562 29.074219 37.101562 C 29.070312 37.105469 29.074219 37.085938 29.078125 37.066406 C 29.082031 37.046875 29.082031 37.03125 29.082031 37.039062 C 29.078125 37.042969 29.078125 37.054688 29.074219 37.074219 C 29.070312 37.097656 29.066406 37.121094 29.050781 37.160156 C 29.03125 37.210938 29.015625 37.25 29.011719 37.285156 C 29.003906 37.320312 29.003906 37.34375 29 37.363281 C 28.996094 37.40625 29 37.4375 28.984375 37.5 C 29.003906 37.4375 29.003906 37.386719 29.011719 37.328125 C 29.015625 37.300781 29.019531 37.273438 29.03125 37.242188 C 29.039062 37.210938 29.054688 37.179688 29.066406 37.148438 C 29.066406 37.140625 29.070312 37.125 29.074219 37.109375 C 29.078125 37.101562 29.078125 37.09375 29.082031 37.085938 C 29.082031 37.074219 29.085938 37.0625 29.085938 37.050781 C 29.09375 37.007812 29.101562 36.957031 29.109375 36.902344 L 29.09375 36.886719 C 29.082031 36.875 29.074219 36.867188 29.0625 36.855469 L 29.050781 36.839844 L 29.035156 36.828125 L 29.003906 36.800781 C 28.964844 36.765625 28.921875 36.726562 28.886719 36.6875 C 28.949219 36.753906 29.03125 36.816406 29.070312 36.859375 C 29.09375 36.882812 29.113281 36.898438 29.109375 36.894531 C 29.105469 36.894531 29.105469 36.890625 29.101562 36.890625 C 29.097656 36.882812 29.085938 36.871094 29.070312 36.855469 C 29.003906 36.789062 28.921875 36.730469 28.855469 36.652344 C 28.847656 36.644531 28.835938 36.628906 28.832031 36.617188 C 28.824219 36.605469 28.820312 36.589844 28.816406 36.578125 C 28.808594 36.558594 28.800781 36.539062 28.789062 36.527344 C 28.785156 36.523438 28.777344 36.519531 28.765625 36.511719 C 28.765625 36.507812 28.761719 36.507812 28.757812 36.507812 C 28.761719 36.507812 28.765625 36.511719 28.765625 36.511719 C 28.789062 36.523438 28.796875 36.53125 28.804688 36.550781 C 28.8125 36.566406 28.820312 36.59375 28.832031 36.617188 C 28.835938 36.628906 28.84375 36.640625 28.851562 36.648438 C 28.859375 36.65625 28.867188 36.664062 28.871094 36.667969 C 28.882812 36.679688 28.890625 36.691406 28.894531 36.695312 C 28.902344 36.699219 28.894531 36.691406 28.859375 36.652344 C 28.851562 36.644531 28.839844 36.632812 28.835938 36.621094 C 28.828125 36.609375 28.824219 36.597656 28.820312 36.585938 C 28.8125 36.5625 28.808594 36.546875 28.796875 36.53125 C 28.792969 36.527344 28.789062 36.519531 28.78125 36.515625 C 28.773438 36.511719 28.761719 36.503906 28.75 36.496094 C 28.738281 36.484375 28.730469 36.476562 28.722656 36.464844 C 28.714844 36.453125 28.710938 36.445312 28.703125 36.433594 C 28.679688 36.390625 28.664062 36.347656 28.648438 36.3125 C 28.632812 36.273438 28.617188 36.242188 28.597656 36.214844 C 28.53125 36.128906 28.542969 36.148438 28.5625 36.179688 C 28.582031 36.207031 28.605469 36.242188 28.558594 36.179688 C 28.570312 36.191406 28.519531 36.128906 28.476562 36.039062 C 28.453125 36 28.433594 35.953125 28.414062 35.914062 C 28.398438 35.871094 28.386719 35.835938 28.382812 35.820312 C 28.371094 35.773438 28.367188 35.753906 28.359375 35.722656 C 28.351562 35.703125 28.347656 35.6875 28.332031 35.65625 C 28.320312 35.625 28.304688 35.582031 28.285156 35.527344 C 28.234375 35.386719 28.273438 35.507812 28.269531 35.496094 C 28.265625 35.484375 28.261719 35.46875 28.257812 35.457031 C 28.25 35.441406 28.246094 35.429688 28.238281 35.40625 C 28.226562 35.367188 28.230469 35.324219 28.230469 35.289062 C 28.234375 35.269531 28.234375 35.253906 28.230469 35.238281 C 28.230469 35.21875 28.230469 35.199219 28.226562 35.179688 C 28.226562 35.140625 28.222656 35.101562 28.21875 35.0625 C 28.214844 35.023438 28.207031 34.984375 28.203125 34.945312 C 28.203125 34.925781 28.199219 34.90625 28.199219 34.886719 C 28.199219 34.875 28.195312 34.867188 28.195312 34.855469 C 28.195312 34.847656 28.195312 34.839844 28.195312 34.832031 C 28.191406 34.773438 28.179688 34.714844 28.183594 34.664062 C 28.183594 34.667969 28.183594 34.667969 28.183594 34.664062 C 28.183594 34.65625 28.183594 34.628906 28.191406 34.601562 C 28.195312 34.570312 28.203125 34.539062 28.207031 34.503906 C 28.214844 34.472656 28.21875 34.441406 28.21875 34.417969 C 28.21875 34.429688 28.222656 34.414062 28.222656 34.382812 C 28.226562 34.351562 28.226562 34.308594 28.234375 34.273438 C 28.242188 34.238281 28.25 34.214844 28.246094 34.230469 C 28.242188 34.242188 28.230469 34.292969 28.230469 34.390625 C 28.226562 34.398438 28.226562 34.433594 28.226562 34.375 C 28.226562 34.429688 28.21875 34.480469 28.210938 34.523438 C 28.203125 34.566406 28.199219 34.601562 28.199219 34.609375 C 28.207031 34.554688 28.222656 34.503906 28.226562 34.457031 C 28.234375 34.40625 28.234375 34.359375 28.238281 34.3125 C 28.242188 34.289062 28.242188 34.269531 28.25 34.246094 C 28.253906 34.226562 28.261719 34.207031 28.269531 34.191406 C 28.285156 34.160156 28.296875 34.132812 28.308594 34.117188 C 28.28125 34.175781 28.257812 34.214844 28.25 34.257812 C 28.238281 34.300781 28.238281 34.335938 28.234375 34.382812 C 28.230469 34.464844 28.222656 34.496094 28.222656 34.503906 C 28.222656 34.511719 28.226562 34.492188 28.230469 34.464844 C 28.238281 34.414062 28.242188 34.324219 28.242188 34.363281 C 28.246094 34.328125 28.246094 34.273438 28.265625 34.21875 C 28.285156 34.167969 28.316406 34.121094 28.332031 34.078125 C 28.347656 34.035156 28.351562 33.992188 28.355469 33.960938 C 28.359375 33.933594 28.363281 33.917969 28.363281 33.925781 C 28.367188 33.871094 28.378906 33.824219 28.394531 33.792969 C 28.40625 33.757812 28.414062 33.738281 28.417969 33.726562 C 28.425781 33.703125 28.417969 33.71875 28.394531 33.769531 C 28.40625 33.742188 28.421875 33.710938 28.433594 33.679688 C 28.4375 33.660156 28.441406 33.644531 28.445312 33.628906 C 28.449219 33.609375 28.453125 33.589844 28.457031 33.574219 C 28.460938 33.535156 28.46875 33.492188 28.480469 33.449219 C 28.488281 33.414062 28.496094 33.371094 28.507812 33.332031 C 28.511719 33.3125 28.519531 33.289062 28.527344 33.269531 C 28.535156 33.253906 28.542969 33.234375 28.550781 33.21875 C 28.5625 33.183594 28.574219 33.152344 28.585938 33.121094 C 28.59375 33.105469 28.597656 33.09375 28.605469 33.078125 C 28.609375 33.066406 28.613281 33.050781 28.617188 33.039062 C 28.625 33.015625 28.632812 32.992188 28.640625 32.976562 C 28.648438 32.957031 28.65625 32.929688 28.664062 32.902344 C 28.667969 32.890625 28.671875 32.875 28.671875 32.863281 C 28.675781 32.847656 28.679688 32.832031 28.683594 32.816406 C 28.695312 32.75 28.71875 32.683594 28.734375 32.628906 C 28.746094 32.570312 28.753906 32.515625 28.769531 32.46875 C 28.78125 32.421875 28.792969 32.394531 28.796875 32.386719 C 28.789062 32.417969 28.777344 32.445312 28.769531 32.476562 C 28.761719 32.503906 28.757812 32.535156 28.75 32.5625 C 28.746094 32.589844 28.742188 32.617188 28.734375 32.644531 C 28.726562 32.671875 28.71875 32.699219 28.707031 32.730469 C 28.714844 32.710938 28.722656 32.683594 28.730469 32.660156 C 28.738281 32.636719 28.742188 32.613281 28.75 32.589844 C 28.757812 32.539062 28.765625 32.484375 28.785156 32.429688 C 28.804688 32.378906 28.824219 32.335938 28.835938 32.292969 C 28.84375 32.273438 28.847656 32.257812 28.851562 32.238281 C 28.855469 32.21875 28.859375 32.203125 28.863281 32.1875 C 28.875 32.15625 28.882812 32.128906 28.898438 32.09375 C 28.910156 32.058594 28.929688 32.011719 28.964844 31.941406 C 28.957031 31.957031 28.972656 31.925781 29 31.863281 C 29.015625 31.828125 29.039062 31.785156 29.0625 31.742188 C 29.074219 31.71875 29.082031 31.695312 29.089844 31.667969 C 29.097656 31.640625 29.109375 31.609375 29.117188 31.578125 C 29.132812 31.53125 29.148438 31.492188 29.160156 31.453125 C 29.171875 31.421875 29.179688 31.390625 29.1875 31.363281 C 29.203125 31.308594 29.214844 31.265625 29.230469 31.226562 C 29.242188 31.199219 29.25 31.167969 29.261719 31.136719 C 29.265625 31.128906 29.265625 31.121094 29.269531 31.109375 C 29.273438 31.105469 29.273438 31.101562 29.277344 31.097656 C 29.28125 31.089844 29.28125 31.082031 29.285156 31.074219 C 29.304688 31.042969 29.328125 31.023438 29.355469 31 C 29.367188 31.015625 29.378906 31.027344 29.394531 31.042969 C 29.398438 31.050781 29.40625 31.058594 29.414062 31.070312 C 29.417969 31.074219 29.421875 31.078125 29.425781 31.082031 L 29.429688 31.089844 C 29.445312 31.113281 29.460938 31.140625 29.476562 31.175781 C 29.464844 31.148438 29.453125 31.125 29.4375 31.097656 C 29.472656 31.152344 29.488281 31.207031 29.5 31.25 C 29.507812 31.269531 29.511719 31.289062 29.519531 31.304688 C 29.527344 31.320312 29.53125 31.332031 29.542969 31.34375 C 29.574219 31.386719 29.621094 31.421875 29.660156 31.46875 C 29.667969 31.480469 29.679688 31.492188 29.6875 31.507812 C 29.691406 31.523438 29.699219 31.535156 29.707031 31.550781 C 29.71875 31.578125 29.730469 31.609375 29.746094 31.640625 C 29.757812 31.671875 29.773438 31.714844 29.789062 31.757812 C 29.796875 31.78125 29.808594 31.800781 29.816406 31.824219 C 29.828125 31.847656 29.84375 31.867188 29.859375 31.890625 C 29.875 31.910156 29.890625 31.925781 29.90625 31.941406 C 29.929688 31.972656 29.953125 32.003906 29.976562 32.035156 C 29.996094 32.070312 30.011719 32.105469 30.027344 32.140625 C 30.042969 32.175781 30.058594 32.210938 30.074219 32.246094 C 30.082031 32.265625 30.089844 32.285156 30.097656 32.300781 C 30.105469 32.320312 30.117188 32.34375 30.125 32.363281 C 30.113281 32.335938 30.105469 32.320312 30.097656 32.308594 C 30.089844 32.296875 30.082031 32.28125 30.070312 32.253906 C 30.082031 32.277344 30.089844 32.296875 30.097656 32.316406 C 30.109375 32.339844 30.117188 32.359375 30.125 32.382812 C 30.144531 32.425781 30.15625 32.46875 30.171875 32.511719 C 30.160156 32.484375 30.152344 32.464844 30.15625 32.476562 C 30.160156 32.488281 30.167969 32.523438 30.21875 32.609375 C 30.203125 32.585938 30.183594 32.554688 30.171875 32.519531 C 30.15625 32.488281 30.144531 32.453125 30.132812 32.429688 C 30.113281 32.382812 30.109375 32.378906 30.152344 32.492188 C 30.148438 32.476562 30.160156 32.515625 30.191406 32.570312 C 30.21875 32.625 30.269531 32.699219 30.300781 32.769531 C 30.28125 32.730469 30.273438 32.714844 30.273438 32.71875 C 30.273438 32.71875 30.285156 32.742188 30.296875 32.769531 C 30.324219 32.828125 30.371094 32.917969 30.390625 32.960938 C 30.453125 33.082031 30.367188 32.910156 30.351562 32.871094 C 30.394531 32.957031 30.4375 33.046875 30.480469 33.136719 C 30.453125 33.082031 30.472656 33.121094 30.5 33.179688 C 30.523438 33.238281 30.558594 33.3125 30.5625 33.324219 C 30.570312 33.335938 30.574219 33.351562 30.582031 33.363281 C 30.589844 33.378906 30.59375 33.394531 30.601562 33.410156 C 30.613281 33.441406 30.621094 33.46875 30.628906 33.492188 C 30.644531 33.53125 30.648438 33.539062 30.625 33.453125 C 30.617188 33.425781 30.605469 33.402344 30.59375 33.378906 C 30.566406 33.304688 30.535156 33.234375 30.503906 33.164062 C 30.527344 33.21875 30.554688 33.273438 30.578125 33.328125 C 30.589844 33.351562 30.601562 33.382812 30.613281 33.410156 C 30.621094 33.4375 30.628906 33.464844 30.640625 33.492188 C 30.648438 33.519531 30.65625 33.546875 30.664062 33.574219 L 30.695312 33.65625 C 30.703125 33.683594 30.714844 33.710938 30.722656 33.738281 L 30.734375 33.78125 C 30.738281 33.792969 30.742188 33.808594 30.746094 33.820312 C 30.765625 33.875 30.789062 33.933594 30.800781 33.996094 C 30.8125 34.066406 30.804688 34.128906 30.8125 34.1875 C 30.820312 34.253906 30.824219 34.324219 30.828125 34.390625 C 30.832031 34.460938 30.835938 34.535156 30.835938 34.613281 C 30.832031 34.699219 30.832031 34.683594 30.828125 34.695312 C 30.828125 34.699219 30.828125 34.710938 30.828125 34.746094 C 30.828125 34.765625 30.824219 34.789062 30.824219 34.820312 C 30.824219 34.851562 30.824219 34.890625 30.820312 34.941406 C 30.816406 34.976562 30.816406 35.007812 30.816406 35.019531 C 30.816406 35.023438 30.816406 35.019531 30.820312 35.003906 C 30.820312 34.996094 30.824219 34.980469 30.824219 34.953125 C 30.824219 34.957031 30.824219 34.960938 30.824219 34.960938 L 30.820312 34.996094 C 30.820312 35.019531 30.816406 35.042969 30.816406 35.066406 C 30.8125 35.113281 30.804688 35.164062 30.792969 35.214844 C 30.78125 35.261719 30.765625 35.3125 30.75 35.363281 C 30.734375 35.414062 30.71875 35.464844 30.703125 35.519531 C 30.691406 35.558594 30.679688 35.585938 30.679688 35.582031 C 30.679688 35.582031 30.679688 35.574219 30.683594 35.558594 C 30.691406 35.542969 30.695312 35.519531 30.707031 35.488281 C 30.699219 35.507812 30.6875 35.550781 30.667969 35.601562 C 30.648438 35.648438 30.621094 35.695312 30.597656 35.730469 C 30.570312 35.773438 30.546875 35.808594 30.527344 35.839844 C 30.507812 35.875 30.496094 35.902344 30.484375 35.925781 C 30.457031 35.976562 30.433594 36.015625 30.410156 36.050781 C 30.386719 36.089844 30.359375 36.125 30.320312 36.171875 C 30.300781 36.199219 30.269531 36.222656 30.238281 36.246094 C 30.222656 36.257812 30.207031 36.269531 30.191406 36.285156 C 30.175781 36.300781 30.164062 36.316406 30.148438 36.339844 C 30.175781 36.300781 30.160156 36.324219 30.160156 36.328125 C 30.15625 36.332031 30.160156 36.332031 30.167969 36.316406 C 30.179688 36.304688 30.195312 36.285156 30.246094 36.246094 C 30.269531 36.226562 30.300781 36.203125 30.328125 36.171875 C 30.347656 36.144531 30.371094 36.117188 30.390625 36.089844 C 30.429688 36.035156 30.398438 36.082031 30.371094 36.121094 C 30.34375 36.15625 30.320312 36.183594 30.390625 36.097656 C 30.367188 36.125 30.347656 36.152344 30.324219 36.179688 C 30.296875 36.210938 30.269531 36.230469 30.242188 36.25 C 30.21875 36.269531 30.199219 36.285156 30.183594 36.300781 C 30.167969 36.320312 30.152344 36.34375 30.136719 36.363281 C 30.148438 36.351562 30.132812 36.371094 30.109375 36.390625 C 30.089844 36.410156 30.066406 36.425781 30.070312 36.421875 C 30.003906 36.476562 29.992188 36.480469 29.976562 36.492188 C 29.972656 36.496094 29.964844 36.5 29.945312 36.511719 C 29.929688 36.523438 29.902344 36.539062 29.867188 36.566406 C 29.851562 36.578125 29.882812 36.550781 29.9375 36.515625 C 29.992188 36.480469 30.066406 36.429688 30.105469 36.394531 C 30.113281 36.386719 30.113281 36.382812 30.109375 36.386719 C 30.109375 36.390625 30.105469 36.390625 30.101562 36.394531 C 30.097656 36.398438 30.089844 36.402344 30.085938 36.40625 C 30.0625 36.425781 30.023438 36.453125 29.980469 36.484375 C 29.9375 36.511719 29.886719 36.542969 29.847656 36.570312 C 29.8125 36.601562 29.78125 36.636719 29.757812 36.660156 C 29.742188 36.675781 29.75 36.671875 29.742188 36.679688 C 29.738281 36.683594 29.730469 36.691406 29.714844 36.707031 C 29.707031 36.714844 29.699219 36.726562 29.683594 36.738281 C 29.671875 36.746094 29.65625 36.757812 29.640625 36.773438 C 29.628906 36.78125 29.597656 36.804688 29.5625 36.839844 C 29.542969 36.855469 29.519531 36.875 29.5 36.894531 C 29.488281 36.90625 29.476562 36.914062 29.464844 36.925781 C 29.457031 36.929688 29.449219 36.933594 29.441406 36.941406 L 29.4375 36.945312 C 29.4375 36.945312 29.4375 36.945312 29.4375 36.949219 L 29.433594 36.960938 C 29.433594 36.972656 29.429688 36.984375 29.429688 36.996094 C 29.421875 37.019531 29.417969 37.042969 29.414062 37.0625 C 29.410156 37.082031 29.40625 37.101562 29.402344 37.117188 C 29.398438 37.136719 29.394531 37.152344 29.390625 37.164062 C 29.378906 37.210938 29.367188 37.253906 29.363281 37.269531 C 29.359375 37.285156 29.363281 37.273438 29.382812 37.207031 C 29.371094 37.257812 29.355469 37.3125 29.347656 37.351562 C 29.339844 37.394531 29.332031 37.421875 29.332031 37.414062 C 29.332031 37.429688 29.328125 37.449219 29.324219 37.472656 C 29.320312 37.496094 29.316406 37.523438 29.3125 37.546875 C 29.304688 37.601562 29.296875 37.664062 29.285156 37.726562 C 29.269531 37.785156 29.25 37.84375 29.238281 37.886719 C 29.226562 37.933594 29.222656 37.976562 29.21875 37.996094 C 29.21875 37.984375 29.207031 38.027344 29.195312 38.089844 C 29.1875 38.121094 29.183594 38.152344 29.175781 38.183594 C 29.171875 38.214844 29.167969 38.25 29.160156 38.273438 C 29.152344 38.320312 29.140625 38.382812 29.125 38.457031 C 29.121094 38.476562 29.117188 38.496094 29.113281 38.515625 C 29.105469 38.535156 29.101562 38.558594 29.09375 38.578125 C 29.082031 38.617188 29.066406 38.65625 29.054688 38.695312 C 29.035156 38.78125 29.011719 38.863281 28.992188 38.933594 C 28.96875 39.007812 28.953125 39.066406 28.941406 39.105469 C 28.945312 39.089844 28.976562 38.984375 28.980469 38.96875 C 28.980469 38.96875 28.976562 38.972656 28.976562 38.976562 C 28.972656 38.980469 28.972656 38.988281 28.96875 39 C 28.964844 39.015625 28.957031 39.042969 28.949219 39.070312 C 28.933594 39.128906 28.914062 39.199219 28.902344 39.25 L 28.910156 39.222656 L 28.886719 39.304688 L 28.882812 39.316406 L 28.882812 39.324219 L 28.878906 39.339844 C 28.878906 39.351562 28.878906 39.355469 28.878906 39.363281 C 28.878906 39.367188 28.882812 39.363281 28.882812 39.363281 C 28.886719 39.355469 28.886719 39.359375 28.882812 39.363281 C 28.882812 39.371094 28.875 39.382812 28.871094 39.390625 C 28.867188 39.394531 28.867188 39.398438 28.867188 39.394531 C 28.867188 39.398438 28.878906 39.382812 28.917969 39.335938 C 28.921875 39.328125 28.929688 39.320312 28.933594 39.3125 C 28.941406 39.304688 28.949219 39.296875 28.953125 39.289062 C 28.964844 39.273438 28.976562 39.257812 28.988281 39.246094 C 29.007812 39.222656 29.023438 39.207031 29.035156 39.195312 C 29.050781 39.179688 29.054688 39.171875 29.0625 39.167969 C 29.0625 39.164062 29.066406 39.164062 29.066406 39.160156 C 29.070312 39.160156 29.070312 39.160156 29.070312 39.160156 C 29.070312 39.15625 29.070312 39.15625 29.070312 39.152344 C 29.070312 39.152344 29.070312 39.148438 29.070312 39.148438 C 29.070312 39.148438 29.070312 39.136719 29.074219 39.128906 C 29.074219 39.117188 29.082031 39.105469 29.089844 39.097656 C 29.097656 39.089844 29.105469 39.082031 29.113281 39.074219 C 29.121094 39.066406 29.125 39.0625 29.136719 39.054688 C 29.140625 39.046875 29.148438 39.042969 29.15625 39.035156 C 29.171875 39.023438 29.1875 39.011719 29.203125 39.003906 C 29.226562 38.980469 29.257812 38.953125 29.285156 38.929688 C 29.289062 38.925781 29.292969 38.921875 29.304688 38.910156 C 29.3125 38.90625 29.316406 38.902344 29.324219 38.894531 C 29.332031 38.890625 29.34375 38.882812 29.355469 38.875 C 29.375 38.863281 29.398438 38.851562 29.421875 38.839844 L 29.429688 38.835938 C 29.433594 38.835938 29.433594 38.832031 29.4375 38.832031 C 29.441406 38.828125 29.445312 38.824219 29.449219 38.820312 L 29.464844 38.808594 C 29.46875 38.804688 29.46875 38.800781 29.472656 38.800781 C 29.476562 38.796875 29.476562 38.796875 29.480469 38.796875 C 29.5 38.761719 29.523438 38.730469 29.535156 38.714844 C 29.546875 38.695312 29.550781 38.6875 29.539062 38.703125 C 29.550781 38.6875 29.558594 38.675781 29.566406 38.660156 C 29.574219 38.648438 29.585938 38.636719 29.59375 38.628906 C 29.609375 38.609375 29.621094 38.597656 29.628906 38.585938 C 29.648438 38.5625 29.65625 38.550781 29.664062 38.542969 C 29.671875 38.535156 29.675781 38.53125 29.683594 38.519531 C 29.695312 38.503906 29.707031 38.484375 29.734375 38.445312 C 29.753906 38.417969 29.769531 38.386719 29.789062 38.359375 C 29.796875 38.34375 29.808594 38.332031 29.816406 38.316406 C 29.828125 38.300781 29.835938 38.285156 29.847656 38.269531 C 29.867188 38.238281 29.886719 38.203125 29.914062 38.167969 C 29.945312 38.132812 29.980469 38.101562 30.015625 38.070312 C 29.996094 38.085938 29.957031 38.121094 29.953125 38.128906 C 29.992188 38.089844 30.027344 38.0625 30.054688 38.027344 C 30.078125 37.992188 30.09375 37.953125 30.113281 37.917969 C 30.132812 37.882812 30.15625 37.847656 30.183594 37.820312 C 30.210938 37.796875 30.238281 37.773438 30.261719 37.75 C 30.273438 37.742188 30.285156 37.730469 30.292969 37.71875 L 30.324219 37.679688 C 30.34375 37.652344 30.363281 37.625 30.386719 37.601562 C 30.425781 37.550781 30.46875 37.496094 30.527344 37.441406 C 30.488281 37.476562 30.414062 37.570312 30.425781 37.558594 C 30.453125 37.523438 30.484375 37.484375 30.527344 37.445312 C 30.566406 37.40625 30.605469 37.371094 30.640625 37.335938 C 30.675781 37.304688 30.707031 37.277344 30.730469 37.261719 C 30.75 37.246094 30.757812 37.238281 30.75 37.242188 C 30.808594 37.195312 30.785156 37.21875 30.773438 37.226562 C 30.769531 37.230469 30.765625 37.234375 30.78125 37.222656 C 30.789062 37.214844 30.800781 37.207031 30.816406 37.191406 C 30.832031 37.175781 30.855469 37.152344 30.886719 37.125 C 30.855469 37.152344 30.824219 37.1875 30.789062 37.21875 C 30.753906 37.25 30.714844 37.28125 30.679688 37.308594 C 30.6875 37.304688 30.738281 37.265625 30.789062 37.226562 C 30.8125 37.207031 30.832031 37.183594 30.851562 37.167969 C 30.867188 37.152344 30.878906 37.140625 30.878906 37.140625 C 30.859375 37.160156 30.835938 37.183594 30.816406 37.203125 C 30.800781 37.21875 30.785156 37.230469 30.785156 37.230469 C 30.828125 37.195312 30.859375 37.160156 30.898438 37.125 C 30.9375 37.09375 30.984375 37.082031 31.027344 37.054688 C 31.054688 37.035156 31.039062 37.042969 31.015625 37.058594 C 30.988281 37.070312 30.945312 37.089844 30.917969 37.105469 C 30.953125 37.085938 30.976562 37.074219 31 37.0625 C 31.023438 37.054688 31.046875 37.035156 31.082031 37.011719 L 31.070312 37.015625 C 31.164062 36.953125 31.199219 36.9375 31.230469 36.917969 C 31.25 36.910156 31.269531 36.894531 31.296875 36.875 C 31.324219 36.851562 31.367188 36.816406 31.433594 36.78125 C 31.390625 36.804688 31.398438 36.804688 31.367188 36.824219 C 31.414062 36.792969 31.480469 36.765625 31.546875 36.730469 C 31.582031 36.714844 31.617188 36.695312 31.65625 36.679688 C 31.691406 36.664062 31.730469 36.652344 31.769531 36.640625 C 31.84375 36.617188 31.90625 36.566406 31.96875 36.550781 C 32.03125 36.53125 32.078125 36.519531 32.105469 36.511719 C 31.992188 36.546875 32.046875 36.53125 32.117188 36.515625 C 32.132812 36.507812 32.152344 36.503906 32.167969 36.5 C 32.183594 36.496094 32.195312 36.496094 32.207031 36.492188 C 32.226562 36.488281 32.230469 36.488281 32.195312 36.496094 C 32.261719 36.484375 32.328125 36.46875 32.390625 36.453125 C 32.453125 36.441406 32.515625 36.417969 32.574219 36.402344 C 32.628906 36.386719 32.6875 36.378906 32.742188 36.382812 C 32.796875 36.382812 32.84375 36.390625 32.886719 36.390625 C 32.960938 36.390625 33.015625 36.382812 33.0625 36.382812 C 33.109375 36.378906 33.144531 36.378906 33.175781 36.378906 C 33.210938 36.375 33.246094 36.371094 33.285156 36.367188 C 33.328125 36.359375 33.375 36.347656 33.441406 36.355469 C 33.472656 36.355469 33.496094 36.359375 33.519531 36.363281 C 33.550781 36.367188 33.582031 36.367188 33.617188 36.363281 C 33.707031 36.347656 33.761719 36.332031 33.84375 36.351562 C 33.933594 36.375 33.980469 36.402344 33.976562 36.515625 C 33.976562 36.527344 33.972656 36.539062 33.96875 36.550781 C 33.96875 36.554688 33.96875 36.554688 33.96875 36.558594 Z M 28.804688 39.761719 Z M 27.917969 39.027344 Z M 27.914062 39.03125 Z M 27.914062 39.03125 Z M 27.914062 39.03125 C 27.914062 39.03125 27.910156 39.03125 27.914062 39.03125 Z M 28.8125 39.890625 L 28.808594 39.769531 C 28.808594 39.769531 28.808594 39.765625 28.808594 39.765625 C 28.808594 39.765625 28.808594 39.765625 28.808594 39.761719 C 28.808594 39.765625 28.808594 39.765625 28.808594 39.765625 C 28.808594 39.765625 28.808594 39.765625 28.808594 39.761719 L 28.808594 39.765625 L 28.808594 39.761719 C 28.804688 39.761719 28.804688 39.761719 28.804688 39.761719 C 28.804688 39.761719 28.804688 39.761719 28.808594 39.761719 C 28.808594 39.765625 28.804688 39.765625 28.804688 39.769531 C 28.808594 39.886719 28.8125 40.003906 28.808594 40.011719 C 28.8125 39.972656 28.8125 39.929688 28.8125 39.890625 Z M 28.816406 39.933594 C 28.816406 39.886719 28.816406 39.828125 28.816406 39.769531 C 28.8125 39.769531 28.8125 39.765625 28.808594 39.765625 C 28.808594 39.765625 28.808594 39.769531 28.808594 39.769531 C 28.8125 39.796875 28.816406 39.800781 28.816406 39.933594 Z M 28.824219 39.765625 C 28.828125 39.765625 28.824219 39.765625 28.824219 39.765625 Z M 28.808594 39.761719 C 28.808594 39.765625 28.808594 39.765625 28.808594 39.765625 C 28.8125 39.769531 28.816406 39.773438 28.8125 39.769531 L 28.816406 39.765625 Z M 28.808594 39.761719 C 28.808594 39.761719 28.804688 39.761719 28.808594 39.761719 L 28.808594 39.765625 Z M 28.804688 39.761719 C 28.804688 39.761719 28.808594 39.761719 28.808594 39.761719 C 28.804688 39.761719 28.804688 39.761719 28.804688 39.761719 Z M 32.140625 38.753906 C 32.140625 38.753906 32.136719 38.753906 32.125 38.757812 C 32.101562 38.769531 32.074219 38.777344 32.046875 38.785156 C 32.019531 38.796875 31.988281 38.800781 31.957031 38.808594 L 31.960938 38.808594 C 31.910156 38.820312 31.871094 38.828125 31.832031 38.835938 C 31.792969 38.84375 31.757812 38.855469 31.71875 38.863281 C 31.78125 38.847656 31.816406 38.839844 31.855469 38.835938 C 31.894531 38.828125 31.9375 38.824219 32.015625 38.800781 C 32.066406 38.785156 32.097656 38.773438 32.117188 38.765625 C 32.136719 38.757812 32.144531 38.753906 32.140625 38.753906 Z M 32.539062 38.523438 C 32.539062 38.519531 32.542969 38.519531 32.542969 38.519531 C 32.535156 38.523438 32.523438 38.53125 32.515625 38.535156 C 32.523438 38.53125 32.53125 38.527344 32.539062 38.523438 Z M 32.738281 38.359375 C 32.722656 38.375 32.703125 38.390625 32.6875 38.402344 C 32.703125 38.390625 32.71875 38.375 32.738281 38.359375 Z M 32.8125 38.289062 C 32.789062 38.3125 32.765625 38.332031 32.742188 38.355469 C 32.765625 38.335938 32.789062 38.3125 32.8125 38.289062 Z M 33.082031 37.992188 L 33.054688 38.023438 C 33.089844 37.980469 33.109375 37.957031 33.128906 37.9375 C 33.09375 37.976562 33.054688 38.015625 33.019531 38.058594 C 32.976562 38.109375 32.933594 38.164062 32.886719 38.214844 C 32.863281 38.238281 32.839844 38.261719 32.816406 38.285156 C 32.84375 38.257812 32.871094 38.230469 32.902344 38.199219 C 32.902344 38.199219 32.898438 38.203125 32.890625 38.210938 C 32.882812 38.21875 32.875 38.230469 32.867188 38.238281 C 32.847656 38.257812 32.832031 38.273438 32.839844 38.269531 C 32.929688 38.1875 33 38.078125 33.082031 37.992188 Z M 28.703125 36.441406 C 28.699219 36.433594 28.691406 36.421875 28.6875 36.414062 C 28.691406 36.421875 28.695312 36.429688 28.703125 36.441406 Z M 28.808594 39.761719 Z M 28.804688 39.761719 Z M 28.804688 39.761719 Z M 28.757812 36.507812 C 28.757812 36.507812 28.757812 36.503906 28.757812 36.503906 C 28.757812 36.503906 28.757812 36.503906 28.757812 36.507812 Z M 25.691406 37.113281 C 25.699219 37.121094 25.703125 37.132812 25.710938 37.148438 C 25.707031 37.136719 25.699219 37.125 25.691406 37.113281 Z M 28.921875 37.667969 C 28.921875 37.667969 28.921875 37.671875 28.921875 37.671875 C 28.921875 37.667969 28.921875 37.667969 28.921875 37.667969 Z M 26.585938 38.261719 C 26.589844 38.265625 26.59375 38.265625 26.59375 38.269531 C 26.59375 38.265625 26.589844 38.265625 26.589844 38.265625 C 26.589844 38.265625 26.585938 38.261719 26.585938 38.261719 Z M 26.585938 38.261719 C 26.570312 38.253906 26.554688 38.242188 26.53125 38.230469 C 26.542969 38.238281 26.5625 38.25 26.585938 38.261719 Z M 28.710938 36.457031 C 28.71875 36.460938 28.722656 36.46875 28.726562 36.476562 C 28.722656 36.46875 28.714844 36.460938 28.710938 36.453125 C 28.710938 36.453125 28.710938 36.453125 28.710938 36.457031 Z M 28.710938 36.453125 C 28.707031 36.449219 28.707031 36.445312 28.703125 36.441406 C 28.707031 36.445312 28.707031 36.449219 28.710938 36.453125 Z M 28.265625 39.136719 C 28.261719 39.132812 28.261719 39.128906 28.261719 39.125 C 28.261719 39.121094 28.261719 39.117188 28.261719 39.117188 C 28.265625 39.140625 28.265625 39.164062 28.265625 39.175781 C 28.265625 39.164062 28.265625 39.148438 28.265625 39.136719 Z M 26.519531 34.902344 C 26.523438 34.90625 26.523438 34.90625 26.523438 34.910156 C 26.527344 34.910156 26.527344 34.910156 26.519531 34.902344 Z M 33.179688 37.890625 L 33.214844 37.84375 C 33.203125 37.859375 33.195312 37.871094 33.179688 37.890625 Z M 33.234375 37.824219 C 33.226562 37.832031 33.222656 37.839844 33.214844 37.84375 Z M 33.234375 37.824219 " clip-rule="nonzero"/></clipPath></defs><g clip-path="url(#1ccba67edf)"><path fill="#000000" d="M 48.214844 38.90625 C 48.21875 39.363281 48.179688 39.816406 48.15625 40.269531 C 48.144531 40.496094 48.109375 40.722656 48.085938 40.949219 C 48.058594 41.175781 48.039062 41.402344 48 41.625 C 47.476562 45.238281 45.894531 48.691406 43.53125 51.503906 C 41.171875 54.316406 38.023438 56.492188 34.503906 57.660156 C 33.621094 57.945312 32.726562 58.199219 31.8125 58.359375 L 31.472656 58.425781 C 31.355469 58.445312 31.242188 58.460938 31.128906 58.476562 L 30.4375 58.574219 L 29.742188 58.640625 L 29.398438 58.671875 L 29.046875 58.6875 L 28.351562 58.714844 L 27.65625 58.707031 L 27.304688 58.703125 C 27.1875 58.699219 27.074219 58.691406 26.957031 58.683594 L 26.261719 58.640625 L 25.21875 58.523438 L 24.871094 58.46875 L 24.183594 58.355469 L 23.5 58.207031 C 19.855469 57.382812 16.4375 55.523438 13.742188 52.894531 C 11.046875 50.273438 9.078125 46.882812 8.144531 43.203125 L 7.976562 42.511719 L 7.839844 41.8125 C 7.816406 41.695312 7.792969 41.578125 7.773438 41.460938 L 7.726562 41.109375 C 7.691406 40.875 7.65625 40.640625 7.628906 40.402344 C 7.589844 39.929688 7.53125 39.457031 7.523438 38.980469 C 7.515625 38.746094 7.5 38.507812 7.5 38.269531 L 7.507812 37.554688 C 7.539062 35.652344 7.859375 33.753906 8.417969 31.925781 C 8.96875 30.089844 9.804688 28.347656 10.835938 26.730469 C 10.957031 26.523438 11.101562 26.332031 11.238281 26.132812 C 11.378906 25.9375 11.507812 25.734375 11.65625 25.546875 C 11.953125 25.171875 12.234375 24.78125 12.558594 24.425781 C 12.71875 24.242188 12.871094 24.058594 13.035156 23.882812 C 13.152344 23.761719 13.242188 23.617188 13.308594 23.457031 C 17.324219 13.558594 31.277344 9.792969 42.007812 18.390625 C 42.175781 18.527344 42.085938 18.796875 41.875 18.804688 C 38.285156 18.949219 35.734375 22.105469 32.082031 24.933594 C 28.210938 27.933594 23.105469 30.558594 14.21875 28.828125 C 14.183594 28.820312 14.148438 28.8125 14.113281 28.804688 C 13.746094 28.714844 13.636719 28.246094 13.933594 28.011719 C 14.246094 27.761719 14.5625 27.519531 14.886719 27.277344 C 15.691406 26.675781 16.519531 26.097656 17.363281 25.535156 C 17.785156 25.257812 18.210938 24.980469 18.636719 24.710938 C 19.066406 24.441406 19.5 24.175781 19.933594 23.917969 C 20.804688 23.398438 21.691406 22.898438 22.585938 22.421875 C 23.484375 21.945312 24.394531 21.496094 25.320312 21.074219 C 26.246094 20.65625 27.1875 20.269531 28.148438 19.933594 C 28.628906 19.769531 29.113281 19.617188 29.605469 19.484375 C 29.878906 19.410156 30.15625 19.34375 30.433594 19.285156 C 30.464844 19.277344 30.457031 19.230469 30.425781 19.234375 C 30.140625 19.273438 29.859375 19.316406 29.578125 19.371094 C 29.074219 19.464844 28.574219 19.578125 28.078125 19.710938 C 27.085938 19.972656 26.109375 20.289062 25.144531 20.640625 C 24.175781 20.992188 23.222656 21.375 22.28125 21.789062 C 21.339844 22.199219 20.40625 22.632812 19.484375 23.09375 C 19.023438 23.320312 18.566406 23.554688 18.109375 23.796875 C 17.65625 24.035156 17.203125 24.28125 16.75 24.535156 C 16.140625 24.875 15.535156 25.230469 14.933594 25.59375 L 14.890625 25.636719 C 14.742188 25.789062 14.601562 25.949219 14.457031 26.101562 C 14.160156 26.40625 13.90625 26.742188 13.628906 27.066406 C 13.496094 27.230469 13.375 27.402344 13.246094 27.574219 C 13.121094 27.742188 12.988281 27.910156 12.875 28.089844 C 11.921875 29.488281 11.132812 31.011719 10.597656 32.625 C 10.050781 34.238281 9.710938 35.925781 9.632812 37.636719 L 9.601562 38.277344 C 9.597656 38.492188 9.605469 38.707031 9.605469 38.921875 C 9.597656 39.347656 9.640625 39.777344 9.660156 40.203125 C 9.679688 40.417969 9.707031 40.628906 9.730469 40.84375 L 9.765625 41.164062 C 9.777344 41.269531 9.796875 41.375 9.8125 41.480469 L 9.917969 42.117188 L 10.050781 42.746094 C 10.792969 46.097656 12.488281 49.25 14.902344 51.742188 C 17.308594 54.238281 20.421875 56.0625 23.804688 56.9375 L 24.441406 57.09375 L 25.085938 57.21875 L 25.40625 57.285156 L 25.734375 57.328125 L 26.382812 57.421875 L 27.035156 57.480469 C 27.144531 57.492188 27.253906 57.503906 27.363281 57.511719 L 27.691406 57.523438 L 28.351562 57.550781 L 29.007812 57.542969 L 29.339844 57.539062 L 29.667969 57.519531 L 30.324219 57.476562 L 30.980469 57.40625 C 31.085938 57.390625 31.199219 57.382812 31.304688 57.367188 L 31.632812 57.3125 C 32.503906 57.1875 33.359375 56.972656 34.203125 56.726562 C 37.582031 55.71875 40.671875 53.726562 43.035156 51.074219 C 45.402344 48.425781 47.054688 45.105469 47.675781 41.574219 C 47.722656 41.355469 47.75 41.132812 47.78125 40.910156 C 47.8125 40.6875 47.851562 40.464844 47.871094 40.242188 C 47.910156 39.796875 47.960938 39.351562 47.96875 38.902344 C 47.992188 38.453125 48.003906 38.003906 47.988281 37.554688 C 47.976562 37.105469 47.949219 36.65625 47.90625 36.207031 C 47.742188 34.414062 47.328125 32.640625 46.675781 30.957031 C 47.378906 32.621094 47.847656 34.386719 48.070312 36.1875 C 48.128906 36.640625 48.167969 37.089844 48.191406 37.546875 C 48.21875 38 48.222656 38.453125 48.214844 38.90625 " fill-opacity="1" fill-rule="nonzero"/></g><g clip-path="url(#3de13cb765)"><g clip-path="url(#3c0701789f)"><path fill="#000000" d="M 43.507812 26.746094 L 45.300781 26.746094 L 45.300781 28.578125 L 43.507812 28.578125 Z M 43.507812 26.746094 " fill-opacity="1" fill-rule="nonzero"/></g></g><g clip-path="url(#73b815fae6)"><g clip-path="url(#69847dad48)"><path fill="#000000" d="M 39.230469 22.867188 L 42.164062 22.867188 L 42.164062 25.800781 L 39.230469 25.800781 Z M 39.230469 22.867188 " fill-opacity="1" fill-rule="nonzero"/></g></g><g clip-path="url(#5b803d8dec)"><path fill="#000000" d="M 36.644531 36.933594 C 36.644531 36.933594 35.789062 36.226562 35.515625 38.277344 C 35.371094 39.359375 34.90625 40.167969 34.347656 40.746094 C 34.796875 40.675781 35.273438 40.578125 35.753906 40.421875 C 36.546875 38.851562 36.375 37.273438 36.644531 36.933594 Z M 39.554688 34.710938 C 39.554688 34.710938 38.398438 34.039062 38.484375 36.671875 C 38.523438 37.835938 38.355469 38.707031 38.074219 39.367188 C 38.414062 39.253906 38.707031 39.21875 38.941406 39.253906 C 39.078125 39.273438 39.199219 39.324219 39.300781 39.394531 C 39.941406 37.191406 39.296875 35.210938 39.554688 34.710938 Z M 38.109375 35.730469 C 38.109375 35.730469 37.050781 35.039062 37.003906 37.398438 C 36.980469 38.511719 36.585938 39.519531 36.070312 40.3125 C 36.378906 40.195312 36.691406 40.050781 36.996094 39.875 C 37.226562 39.742188 37.4375 39.632812 37.640625 39.542969 C 38.210938 37.757812 37.859375 36.132812 38.109375 35.730469 " fill-opacity="1" fill-rule="nonzero"/></g><g clip-path="url(#00041e07d9)"><path fill="#000000" d="M 30.289062 51.851562 C 31.515625 49.132812 32.488281 48.015625 37.730469 44.730469 C 43.054688 41.390625 41.183594 37.015625 43.28125 35.808594 C 43.28125 35.808594 41.402344 34.371094 40.695312 37.703125 C 39.886719 41.511719 37.828125 42.230469 35.199219 43.160156 C 35.199219 43.160156 38.445312 41.816406 39.121094 40.476562 C 39.53125 39.65625 39.007812 39.113281 37.171875 40.171875 C 35.078125 41.378906 32.875 41.058594 31.800781 41.457031 C 26.765625 43.320312 30.289062 51.851562 30.289062 51.851562 " fill-opacity="1" fill-rule="nonzero"/></g><g clip-path="url(#27e9f6f0a9)"><path fill="#000000" d="M 21.761719 40.421875 C 22.242188 40.578125 22.714844 40.675781 23.167969 40.746094 C 22.609375 40.167969 22.144531 39.359375 22 38.277344 C 21.722656 36.226562 20.867188 36.933594 20.867188 36.933594 C 21.140625 37.273438 20.964844 38.851562 21.761719 40.421875 Z M 18.214844 39.394531 C 18.316406 39.324219 18.4375 39.273438 18.574219 39.253906 C 18.808594 39.21875 19.097656 39.253906 19.441406 39.367188 C 19.160156 38.707031 18.992188 37.835938 19.03125 36.671875 C 19.113281 34.039062 17.960938 34.710938 17.960938 34.710938 C 18.21875 35.210938 17.574219 37.191406 18.214844 39.394531 Z M 19.875 39.542969 C 20.074219 39.632812 20.289062 39.742188 20.515625 39.875 C 20.824219 40.050781 21.136719 40.195312 21.445312 40.3125 C 20.929688 39.519531 20.535156 38.511719 20.511719 37.398438 C 20.464844 35.039062 19.402344 35.730469 19.402344 35.730469 C 19.65625 36.132812 19.300781 37.757812 19.875 39.542969 " fill-opacity="1" fill-rule="nonzero"/></g><g clip-path="url(#583b68d430)"><path fill="#000000" d="M 27.226562 51.851562 C 26 49.132812 25.023438 48.015625 19.785156 44.730469 C 14.457031 41.390625 16.328125 37.015625 14.230469 35.808594 C 14.230469 35.808594 16.113281 34.371094 16.820312 37.703125 C 17.625 41.511719 19.683594 42.230469 22.3125 43.160156 C 22.3125 43.160156 19.070312 41.816406 18.394531 40.476562 C 17.980469 39.65625 18.507812 39.113281 20.34375 40.171875 C 22.4375 41.378906 24.636719 41.058594 25.714844 41.457031 C 30.746094 43.320312 27.226562 51.851562 27.226562 51.851562 " fill-opacity="1" fill-rule="nonzero"/></g><g clip-path="url(#5acd33f351)"><g clip-path="url(#173bf2d51e)"><path fill="#000000" d="M 25.449219 31 L 25.449219 42.941406 L 33.695312 42.941406 L 33.695312 31 Z M 25.449219 31 " fill-opacity="1" fill-rule="nonzero"/></g></g><path fill="#013b23" d="M 27.9375 38.699219 C 27.867188 38.609375 27.785156 38.542969 27.71875 38.453125 C 27.648438 38.355469 27.566406 38.285156 27.484375 38.199219 C 27.324219 38.027344 27.183594 37.800781 27.082031 37.597656 C 27.003906 37.441406 26.925781 37.277344 26.863281 37.113281 C 26.808594 36.96875 26.738281 36.824219 26.652344 36.691406 C 26.578125 36.574219 26.523438 36.449219 26.449219 36.332031 C 26.402344 36.25 26.339844 36.175781 26.292969 36.097656 C 26.269531 36.0625 26.21875 36.027344 26.222656 35.980469 C 26.324219 36.085938 26.425781 36.191406 26.511719 36.304688 C 26.613281 36.433594 26.738281 36.542969 26.84375 36.667969 C 27.007812 36.855469 27.109375 37.117188 27.222656 37.339844 C 27.335938 37.574219 27.449219 37.816406 27.566406 38.046875 C 27.621094 38.15625 27.683594 38.261719 27.738281 38.371094 C 27.761719 38.414062 27.78125 38.484375 27.8125 38.527344 C 27.847656 38.574219 27.921875 38.632812 27.9375 38.699219 Z M 29.351562 36.511719 C 29.355469 36.445312 29.347656 36.378906 29.351562 36.3125 C 29.355469 36.253906 29.378906 36.222656 29.386719 36.167969 C 29.390625 36.101562 29.398438 36.0625 29.417969 36 C 29.433594 35.941406 29.441406 35.902344 29.449219 35.835938 C 29.453125 35.789062 29.480469 35.75 29.484375 35.703125 C 29.488281 35.671875 29.476562 35.636719 29.480469 35.605469 C 29.496094 35.53125 29.515625 35.488281 29.515625 35.410156 C 29.515625 35.34375 29.515625 35.277344 29.515625 35.210938 C 29.515625 35.136719 29.488281 35.085938 29.484375 35.011719 C 29.480469 34.949219 29.492188 34.878906 29.484375 34.816406 C 29.476562 34.753906 29.449219 34.71875 29.449219 34.652344 C 29.449219 34.625 29.457031 34.578125 29.453125 34.550781 C 29.445312 34.523438 29.421875 34.519531 29.414062 34.488281 C 29.410156 34.457031 29.425781 34.421875 29.417969 34.386719 C 29.414062 34.351562 29.390625 34.324219 29.382812 34.289062 C 29.367188 34.207031 29.378906 34.078125 29.382812 34 C 29.390625 33.921875 29.417969 33.863281 29.417969 33.78125 C 29.417969 33.691406 29.414062 33.601562 29.417969 33.511719 C 29.425781 33.566406 29.386719 33.636719 29.386719 33.699219 C 29.382812 33.757812 29.355469 33.800781 29.351562 33.863281 C 29.347656 33.917969 29.355469 33.96875 29.34375 34.019531 C 29.339844 34.046875 29.324219 34.054688 29.316406 34.089844 C 29.316406 34.117188 29.320312 34.148438 29.320312 34.175781 C 29.320312 34.289062 29.316406 34.40625 29.320312 34.519531 C 29.320312 34.585938 29.308594 34.613281 29.292969 34.667969 C 29.273438 34.738281 29.285156 34.816406 29.285156 34.890625 C 29.285156 35.0625 29.253906 35.222656 29.253906 35.390625 C 29.253906 35.527344 29.253906 35.660156 29.253906 35.796875 C 29.253906 35.855469 29.253906 35.914062 29.253906 35.972656 C 29.253906 36.074219 29.265625 36.148438 29.28125 36.246094 C 29.292969 36.304688 29.300781 36.351562 29.316406 36.414062 C 29.324219 36.449219 29.363281 36.523438 29.351562 36.558594 C 29.316406 36.617188 29.347656 36.582031 29.351562 36.511719 Z M 30.625 38.460938 C 30.726562 38.402344 30.808594 38.320312 30.914062 38.269531 C 31.035156 38.214844 31.160156 38.171875 31.292969 38.132812 C 31.429688 38.089844 31.585938 38.035156 31.714844 37.96875 C 31.8125 37.914062 31.886719 37.820312 31.96875 37.746094 C 32.097656 37.628906 32.242188 37.542969 32.386719 37.449219 C 32.457031 37.402344 32.515625 37.34375 32.582031 37.292969 C 32.625 37.261719 32.761719 37.183594 32.769531 37.125 C 32.566406 37.207031 32.339844 37.273438 32.148438 37.390625 C 32.085938 37.429688 32.03125 37.453125 31.96875 37.484375 C 31.902344 37.515625 31.847656 37.566406 31.785156 37.605469 C 31.671875 37.675781 31.550781 37.710938 31.4375 37.777344 C 31.320312 37.851562 31.191406 37.917969 31.070312 37.992188 C 30.949219 38.0625 30.832031 38.140625 30.710938 38.207031 C 30.648438 38.238281 30.589844 38.257812 30.53125 38.292969 C 30.4375 38.351562 30.355469 38.40625 30.261719 38.464844 C 30.1875 38.511719 30.136719 38.566406 30.074219 38.625 C 30.042969 38.660156 29.988281 38.679688 29.976562 38.730469 C 30.191406 38.660156 30.421875 38.582031 30.625 38.460938 Z M 30.625 38.460938 " fill-opacity="1" fill-rule="nonzero"/><g fill="#000000" fill-opacity="1"><g transform="translate(54.954677, 42.153167)"><g><path d="M 4.757812 0.125 C 5.925781 0.125 6.882812 -0.410156 7.355469 -1.234375 L 7.492188 0 L 8.738281 0 L 8.738281 -4.746094 L 5.21875 -4.746094 L 5.21875 -3.472656 L 7.210938 -3.472656 C 7.039062 -2.136719 6.019531 -1.285156 4.757812 -1.285156 C 2.875 -1.285156 2.074219 -2.707031 2.074219 -4.453125 C 2.074219 -6.082031 2.875 -7.539062 4.734375 -7.539062 C 5.851562 -7.539062 6.769531 -7.007812 7.175781 -5.8125 L 8.570312 -6.398438 C 7.863281 -8.039062 6.472656 -8.917969 4.746094 -8.917969 C 1.84375 -8.917969 0.507812 -6.796875 0.507812 -4.390625 C 0.507812 -1.980469 1.871094 0.125 4.757812 0.125 Z M 4.757812 0.125 "/></g></g></g><g fill="#000000" fill-opacity="1"><g transform="translate(64.482501, 42.153167)"><g><path d="M 1.128906 0.0117188 L 2.707031 0.0117188 L 2.707031 -3.75 L 3.765625 -3.75 L 5.925781 0.0117188 L 7.734375 0.0117188 L 5.292969 -3.90625 C 6.285156 -4.25 7.007812 -5.085938 7.007812 -6.191406 C 7.007812 -7.839844 5.609375 -8.777344 3.96875 -8.777344 L 1.128906 -8.777344 Z M 2.71875 -5.039062 L 2.71875 -7.367188 L 3.980469 -7.367188 C 4.882812 -7.367188 5.449219 -6.894531 5.449219 -6.167969 C 5.449219 -5.507812 4.949219 -5.074219 4.113281 -5.039062 Z M 2.71875 -5.039062 "/></g></g></g><g fill="#000000" fill-opacity="1"><g transform="translate(72.358173, 42.153167)"><g><path d="M 1.128906 0 L 6.96875 0 L 6.96875 -1.492188 L 2.707031 -1.492188 L 2.707031 -3.664062 L 6.675781 -3.664062 L 6.675781 -5.113281 L 2.707031 -5.113281 L 2.707031 -7.328125 L 6.96875 -7.328125 L 6.96875 -8.777344 L 1.128906 -8.777344 Z M 1.128906 0 "/></g></g></g><g fill="#000000" fill-opacity="1"><g transform="translate(80.090991, 42.153167)"><g><path d="M 1.128906 0 L 6.96875 0 L 6.96875 -1.492188 L 2.707031 -1.492188 L 2.707031 -3.664062 L 6.675781 -3.664062 L 6.675781 -5.113281 L 2.707031 -5.113281 L 2.707031 -7.328125 L 6.96875 -7.328125 L 6.96875 -8.777344 L 1.128906 -8.777344 Z M 1.128906 0 "/></g></g></g><g fill="#000000" fill-opacity="1"><g transform="translate(87.823809, 42.153167)"><g><path d="M 1.128906 0 L 2.644531 0 L 2.644531 -6.15625 L 6.324219 0 L 7.902344 0 L 7.902344 -8.777344 L 6.386719 -8.777344 L 6.386719 -2.632812 L 2.695312 -8.777344 L 1.128906 -8.777344 Z M 1.128906 0 "/></g></g></g><g fill="#000000" fill-opacity="1"><g transform="translate(96.854745, 42.153167)"><g><path d="M 1.128906 0 L 2.707031 0 L 2.707031 -3.664062 L 6.554688 -3.664062 L 6.554688 0 L 8.128906 0 L 8.128906 -8.777344 L 6.554688 -8.777344 L 6.554688 -5.113281 L 2.707031 -5.113281 L 2.707031 -8.777344 L 1.128906 -8.777344 Z M 1.128906 0 "/></g></g></g><g fill="#000000" fill-opacity="1"><g transform="translate(106.115494, 42.153167)"><g><path d="M 4.746094 0.125 C 7.644531 0.125 8.980469 -2 8.980469 -4.390625 C 8.980469 -6.78125 7.644531 -8.90625 4.746094 -8.90625 C 1.84375 -8.90625 0.507812 -6.78125 0.507812 -4.390625 C 0.507812 -2 1.84375 0.125 4.746094 0.125 Z M 4.746094 -1.273438 C 2.863281 -1.273438 2.175781 -2.734375 2.175781 -4.390625 C 2.175781 -6.042969 2.863281 -7.503906 4.746094 -7.503906 C 6.628906 -7.503906 7.316406 -6.042969 7.316406 -4.390625 C 7.316406 -2.734375 6.628906 -1.273438 4.746094 -1.273438 Z M 4.746094 -1.273438 "/></g></g></g><g fill="#000000" fill-opacity="1"><g transform="translate(115.606051, 42.153167)"><g><path d="M 4.285156 0.125 C 6.640625 0.125 7.644531 -1.273438 7.644531 -3.484375 L 7.644531 -8.777344 L 6.070312 -8.777344 L 6.070312 -3.601562 C 6.070312 -2.1875 5.703125 -1.398438 4.285156 -1.398438 C 2.875 -1.398438 2.503906 -2.1875 2.503906 -3.601562 L 2.503906 -8.777344 L 0.933594 -8.777344 L 0.933594 -3.421875 C 0.933594 -1.273438 1.933594 0.125 4.285156 0.125 Z M 4.285156 0.125 "/></g></g></g><g fill="#000000" fill-opacity="1"><g transform="translate(124.177366, 42.153167)"><g><path d="M 3.640625 0.0976562 C 5.316406 0.0976562 6.691406 -0.902344 6.691406 -2.558594 C 6.691406 -5.472656 2.441406 -4.914062 2.441406 -6.566406 C 2.441406 -7.125 2.925781 -7.503906 3.546875 -7.503906 C 4.136719 -7.503906 4.660156 -7.160156 4.960938 -6.566406 L 6.273438 -7.367188 C 5.671875 -8.433594 4.683594 -8.90625 3.601562 -8.90625 C 2.125 -8.90625 0.863281 -8.039062 0.863281 -6.484375 C 0.863281 -3.628906 5.113281 -4.234375 5.113281 -2.417969 C 5.113281 -1.796875 4.601562 -1.296875 3.664062 -1.296875 C 2.734375 -1.296875 1.957031 -1.78125 1.84375 -2.875 L 0.28125 -2.476562 C 0.558594 -0.75 2.085938 0.0976562 3.640625 0.0976562 Z M 3.640625 0.0976562 "/></g></g></g><g fill="#000000" fill-opacity="1"><g transform="translate(131.239389, 42.153167)"><g><path d="M 1.128906 0 L 6.96875 0 L 6.96875 -1.492188 L 2.707031 -1.492188 L 2.707031 -3.664062 L 6.675781 -3.664062 L 6.675781 -5.113281 L 2.707031 -5.113281 L 2.707031 -7.328125 L 6.96875 -7.328125 L 6.96875 -8.777344 L 1.128906 -8.777344 Z M 1.128906 0 "/></g></g></g></svg>